<svg id="Capa_1" data-name="Capa 1" xmlns="http://www.w3.org/2000/svg" viewBox="0 0 209.14 139.73"><defs><style>.cls-1{fill:#ffad36;}.cls-2{fill:#f5d44f;}.cls-3{fill:#f99a1c;}.cls-4{fill:#339e76;}.cls-5{fill:#56bf99;}</style></defs><title>capsula</title><rect class="cls-1" x="94.77" y="27.23" width="114.37" height="17.68"/><ellipse class="cls-1" cx="151.95" cy="44.91" rx="57.18" ry="27.23"/><path class="cls-2" d="M209.13,261.58a15,15,0,0,1-3.09,8.84h0a32.3,32.3,0,0,1-10.62,8.84c-10.49,5.84-26.07,9.54-43.47,9.54-2.84,0-5.64-.1-8.37-.3-2-.13-4-.33-6-.57-11.51-1.41-21.62-4.49-29.13-8.67a32.3,32.3,0,0,1-10.62-8.84h0a15,15,0,0,1-3.09-8.84,13.22,13.22,0,0,1,.51-3.64C99,244.62,123,234.36,152,234.36c2,0,4,0,5.92.13H158l1.88,4.12,3.69-3.7.53.05C189.84,237.62,209.13,248.53,209.13,261.58Z" transform="translate(0 -234.36)"/><path class="cls-1" d="M164.09,235l-6.59,17.2-2.94,7.66-7.44,19.44-3.54,9.24-3.26,3.3-2.71-3.87,20.26-53.45,0-.13.06.13h0l1.88,4.12,3.69-3.7Z" transform="translate(0 -234.36)"/><polygon class="cls-3" points="159.87 4.26 140.32 57.45 137.61 53.58 157.87 0.14 157.98 0.14 157.99 0.15 159.87 4.26"/><path class="cls-4" d="M102.86,310.16c-2.57-2.59-1.43,5.46-4,4.23-3.17-1.51-7.08-1.65-10.1-3.17s-5.59-4.61-8.68-6.32a89.84,89.84,0,0,0-10.33-4.7c-9.11-3.64-20.17-5.11-29.82-3.13-7.44,1.53-16.33,3.89-23,7.46a32.74,32.74,0,0,0-15.8,17.62c-2,5.39-.6,10.13-.68,15.65-.36,24,26.52,34.66,46.7,36.06a107,107,0,0,0,19.27-.49c16.67-2,36.26-11.29,41.76-28.32l.24-.76c1.76-5.71,3.51-16.52,2.1-22.48C110.09,320.25,104.19,311.5,102.86,310.16Z" transform="translate(0 -234.36)"/><path class="cls-5" d="M1.59,335.15c4.46,13,20,16.71,32.19,18.67,22.79,3.66,67.23,4.67,76.07-24,5.3-17.19-18.94-29.42-32.57-31.84-16.54-2.93-35.5-2.17-51.42,3.25-13.39,4.57-29,16.45-24.71,32.5C1.28,334.19,1.43,334.68,1.59,335.15Z" transform="translate(0 -234.36)"/><path class="cls-4" d="M50.57,353.84c-.84-10.65-1.78-22,.09-32.64a148.57,148.57,0,0,1,4.19-16.91c.82-2.7,1.61-5.67,3.32-7.8.65,4.09-1.17,9-1.74,13.16-1,7.15-1.63,14.41-2.33,21.6-.5,5.12-.66,10.29-1.23,15.35-.3,2.76-.49,5.6-2,8.11Z" transform="translate(0 -234.36)"/></svg>