<svg id="Capa_1" data-name="Capa 1" xmlns="http://www.w3.org/2000/svg" viewBox="0 0 255.83 220.29"><defs><style>.cls-1{fill:#8cf2d7;}.cls-2{fill:#b3ffe9;}.cls-3{fill:#6cdbc2;}.cls-4{fill:#5fc1a7;}.cls-5{fill:#01af96;}</style></defs><title>cristal</title><polygon class="cls-1" points="207.42 73.78 86.41 81.21 83.38 105.15 210.29 90.86 207.42 73.78"/><polygon class="cls-2" points="83.38 105.15 90.1 145.01 214.5 115.92 210.29 90.86 83.38 105.15"/><polygon class="cls-1" points="101.14 168.92 209.45 134.34 214.5 115.92 90.1 145.01 101.14 168.92"/><polygon class="cls-3" points="255.83 96.69 214.5 115.92 209.45 134.34 255.83 96.69"/><polyline class="cls-1" points="255.83 96.69 214.5 115.92 210.29 90.86 255.83 96.69"/><polygon class="cls-3" points="253.85 96.43 210.29 90.86 207.42 73.78 253.85 96.43"/><polygon class="cls-4" points="86.41 81.21 36.56 133.5 83.38 105.15 86.41 81.21"/><polygon class="cls-3" points="90.1 145.01 36.56 133.5 83.38 105.15 90.1 145.01"/><polygon class="cls-5" points="101.14 168.92 36.56 133.5 90.1 145.01 101.14 168.92"/><polygon class="cls-1" points="68.83 108.05 87.29 152.39 32.02 163.3 68.83 108.05"/><polygon class="cls-3" points="87.29 152.39 96.71 93.55 68.83 108.05 87.29 152.39"/><polygon class="cls-3" points="96.71 93.55 83.9 28.6 54.31 34.44 96.71 93.55"/><polygon class="cls-2" points="68.83 108.05 54.31 34.44 96.71 93.55 68.83 108.05"/><polygon class="cls-2" points="32.02 163.3 21.8 74.59 68.83 108.05 32.02 163.3"/><polygon class="cls-3" points="32.02 163.3 0 78.89 21.8 74.59 32.02 163.3"/><polygon class="cls-4" points="21.8 74.59 23.66 0 0 78.89 21.8 74.59"/><polygon class="cls-1" points="54.31 34.44 23.66 0 83.9 28.6 54.31 34.44"/><polygon class="cls-3" points="54.31 34.44 21.8 74.59 23.66 0 54.31 34.44"/><polygon class="cls-1" points="68.83 108.05 21.8 74.59 54.31 34.44 68.83 108.05"/><polygon class="cls-1" points="240.9 178.77 218.43 220.29 188.81 215.35 240.9 178.77"/><polygon class="cls-3" points="240.9 178.77 154.04 148.03 188.81 215.35 240.9 178.77"/><polygon class="cls-4" points="154.04 148.03 43.36 143.64 13 178.13 188.81 215.35 154.04 148.03"/><polygon class="cls-1" points="188.81 215.35 28.58 216.77 13 178.13 188.81 215.35"/><polygon class="cls-3" points="218.43 220.29 28.58 216.77 188.81 215.35 218.43 220.29"/></svg>