<svg id="Capa_1" data-name="Capa 1" xmlns="http://www.w3.org/2000/svg" viewBox="0 0 319.37 156.71"><defs><style>.cls-1{fill:#faf6e9;}.cls-2{fill:#f6edd1;}.cls-3{fill:#e7dab5;}.cls-4{fill:#fffbf8;}</style></defs><title>polvo</title><path class="cls-1" d="M44.59,143.64c17.76,3.43,35.46,2.39,53.16,0,10-1.32,20-.26,30-.28,2,0,4.32.47,5.38,1.91,4.73,6.45,11.54,5.74,18.15,5.95,21.73.73,43.38-1.33,65-2.88,29.94-2.15,59.77-5.83,89.66-8.88a23.29,23.29,0,0,0,4.9-1c3.69-1.23,4.69-3.83,2.62-7.07a20.22,20.22,0,0,0-3.47-3.64c-5.13-4.76-5.3-5.65-2.61-12.25,2.45-6,4.71-12,7.28-17.94.95-2.21,1.94-4.43-.19-6.12-6.07-4.84-7.8-12.19-10.85-18.73-4.14-8.94-9.78-16.19-18.8-20.55-5-2.42-9.65-5.58-14.51-8.26a14.66,14.66,0,0,1-1.34-.86c-2.51-.88-5-1.8-7.58-2.56-5.48-1.63-4.23-2.72-7-7.39a30,30,0,0,0-6.89-8.48c-6.14.36-12.28-.45-18.31.52-.54.08-1.28-1-1.9-1.55-10.13-9.26-22.5-14.29-34.92-19.33-12.66-5.16-24.76-2.57-36.23,3-10.07,4.91-18.41,12.41-25.82,21A127.37,127.37,0,0,1,109.81,48,200.91,200.91,0,0,0,88.75,65.9,128.28,128.28,0,0,1,67.1,83c-7.79,4.89-16,9.08-22.77,15.59-1.74,1.67-4.35,2.42-6.48,3.74-5.65,3.49-11.93,6.06-16.26,11.51-4.53,5.7-9.25,11.13-16,14.46-2.17,1.06-5,2.59-5.56,5.67,6.59,5.28,23,10.16,32.94,9.88C36.84,143.71,40.85,142.91,44.59,143.64ZM266.68,72a1.42,1.42,0,1,1-2.45,0,2.34,2.34,0,0,1,.33-.43,1.24,1.24,0,0,1,1.78,0A5.38,5.38,0,0,1,266.68,72Zm-4.41-13.4c1.06-1.8,4-.57,3.38,1.42C264.8,62.64,260.93,60.92,262.27,58.63ZM235.38,84.42a1.52,1.52,0,0,1,0,3A1.52,1.52,0,0,1,235.38,84.42Z"/><path class="cls-2" d="M37,144c11,.59,22.31-.88,33.35-1,11.21-.13,22.6,1.27,33.82,1.88,10.57.58,21.15-1.22,31.53-3,7.08-1.21,14-2.83,21.24-2.91,6.25-.07,12.53.78,18.79.94,10.46.26,20.62-4.13,30.61-6.55,7.64-1.85,15.64-2.44,23.38-3.83,13.52-2.43,29.64-6.77,36.33-20,1-1.87,1-4.61-.78-6.09-3.92-3.21-6.48-7.52-10.4-10.7q-.47,3.52-.91,7.06c2.16-1.52,4.15-3.28,6.31-4.8,3.1-2.19,2.8-6.92-1.07-8.11-5.85-1.81-12-2.28-17.59-5-2.12-1,14.12-8.21,16.37-9.32C261.8,70.73,259.85,65,256,65l-5.27,0c.69,2.56,1.39,5.12,2.08,7.68,12.37-8.4,4.79-17-1.23-27.3-7.91-13.62-20.93-17-33.65-25-15.79-10-36.2-19-55.2-17.5-15.17,1.24-31.78,15.46-39.44,28-.91,1.5,1.35,3.34,2.48,1.91,8.3-10.45,21.75-17.84,34.83-20.13,16.39-2.86,32.31,6.35,46.33,13.52,5.78,3,10.83,7,16.79,9.66a55.47,55.47,0,0,1,13.66,8.13c3.17,2.74,5.88,7,8.29,10.39,2.63,3.66,7.9,7.79,3,11.2-3.24,2.25-2.26,7.71,2.08,7.69l5.27,0c-.69-2.54-1.37-5.09-2.07-7.64-6,3-23.48,6.6-21.84,16.22,1.73,10.25,17,11.23,24.84,13.76-.35-2.7-.71-5.41-1.06-8.12-2.18,1.5-4.18,3.22-6.36,4.7s-3.27,5.09-.9,7.06c3.88,3.25,6.2,7.77,9.65,11.46-.27-2-.52-4.07-.79-6.09-8.3,12.07-27.87,13.44-41.06,15.31a168.31,168.31,0,0,0-20.53,3.85,103.69,103.69,0,0,1-35.11,3.55c-9.63-.55-18.7,1.63-28.12,3.35-11.88,2.19-23.88,3.46-35.91,4.58-10,.94-20,2.42-30.09,3.17-9.74.72-20.49,1.21-29.72,4.55A.6.6,0,0,0,37,144Z"/><path class="cls-2" d="M292.36,85.54a57.64,57.64,0,0,1-5.17,7.36L297.11,97c-.61-8.36-5.91-29-16.9-29-13.4,0-11.7,20.85-12.31,29.54h16.19c-.2-12.81-4.75-27-14.39-35.89-4.07-3.73-12.82-2.91-13.79,3.64-1.24,8.5.29,15.69,2.66,23.9l15.86-4.37C271.63,75.55,261.52,65,250.92,71c-11.12,6.34-2.7,17.71,7.68,16.37,9-1.16,9.54-15,0-14.5-4.6.26-9.16.62-13.72,1.17-7.37.88-9.06,10.33-1.76,13L248.45,89,245.6,78.22l-3.43,2.25q2.39,5.69,4.78,11.36c3.64-2.14,6.48-2,10.14,0a11.93,11.93,0,0,1,3,2.43q1.31,2.64,1.18-1.74c-8.34.92-8.68,13.89,0,13.31A21.83,21.83,0,0,1,269,106l1.77-13a108.3,108.3,0,0,0-12.3,1.86c-5.2,1-5.91,7.59-2.91,11a58.09,58.09,0,0,0,4.47,4.8c2.8,2.84.7-.29-1.91,1.46-4.08,2.71-8.61,4.68-12.7,7.38-12.13,8-27,11.36-41.06,14-25.82,4.78-51.75,4.79-77.61,7.57-2,.21-3.24,2.46-1.67,4.06,7.59,7.76,26,2.44,35.86,2.09,20.38-.72,40.4-.18,60.44-4.82,15.66-3.63,29.42-11.21,43.24-19.13,4.24-2.43,8.32-6.45,9.37-11.35,1.36-6.42-5.49-11.14-9.13-15.32-1,3.65-1.93,7.32-2.9,11a74.84,74.84,0,0,1,8.81-1.3c7-.46,9.52-11.73,1.76-13a48.87,48.87,0,0,0-11.26-.8v13.31c10.22-1,16.1-8.82,10.4-18.41-6.49-10.89-20.81-11.55-30.95-6.27-6.29,3.28-1.91,13.34,4.79,11.34a21.91,21.91,0,0,0,7.92-4.12c3.32-2.56,5-8.93,0-11.1L248.21,75l-3.33,12.3a130.85,130.85,0,0,1,13.72.12V72.88q-4.86-.69,2.49,4.18c-.26,2-.54,4-.8,6.06-4.07,5.31-3.39.33-1.72,6.06,3,10.15,18.71,5.87,15.86-4.37-1.34-4.83-3.33-10-2.61-15.15L258,73.3c6.69,6,9.32,15.49,9.87,24.23.68,10.46,17.24,10.28,16.19,0-.3-2.86-.84-5.7-1-8.58,0-1.44,0-2.89.05-4.34.05-.69.1-1.4.15-2.1,1.23-3-.26-3.29-4.47-.87,4.63,4.36,4,13.14,7.46,18.3,3.57,5.35,12.49,2.09,10.62-4.48a34.87,34.87,0,0,1-1.15-9,1.83,1.83,0,0,0-3.39-.92Z"/><path class="cls-2" d="M289.72,122.53c-4.86-.28-9.23.57-14,1.22-6.25.83-3.74,9.33,1.35,10,8.38,1.13,16.47-2,23.53-6.37,4.79-2.93,3.07-11.21-3-10.92-8.66.42-15.05,3-20.23,10-3.15,4.31,1.27,9.06,5.46,9.53a41.2,41.2,0,0,0,10.11-.23c4.54-.57,5.41.77,8.88,2.71,5.18,2.9,9.76,1.85,14.49-1.39,7.13-4.89.44-16.57-6.82-11.67,3-2,2.77,4.06,2.52-1.82a33.42,33.42,0,0,1,.75-7.59c1-5,3.2-9.54,4.06-14.54C319,89.12,305.16,75.68,298,67c-9.37-11.35-21.64-20.15-33.62-28.52-11.71-8.19-23.07-21.07-38.74-16.15a3.14,3.14,0,0,0-1.37,5.18c1.74,1.85,3.05,3.68,5.74,3.78,6.9.26,10.79,1.94,15.55,6.69,5.42,5.4,11.7,9.67,17.95,14,14.83,10.29,27.21,22.41,36.77,37.81,6.17,9.93-.23,22.73-.66,33.9-.36,9.67,5,17,15.16,14.16-1.75-4.11-3.48-8.23-5.22-12.34-1.45.77-5-2.4-7.94-3.48-5.37-2-13.23,1.57-18.72,1.4l5.47,9.52a10.27,10.27,0,0,1,9.3-4.72l-2.95-10.91a40.49,40.49,0,0,1-17.62,6.28l4.41,7.68,8.61-6a1.39,1.39,0,0,0-.35-2.72Z"/><path class="cls-2" d="M170.21,7.73c8.94-6.61,23.77,2.57,31.89,7,10.66,5.78,20.33,15.37,31.87,18.73,1.07.32,2.23-1,1.52-2-9.11-12.87-23.77-20.74-38-27-7.27-3.2-25.4-9.41-28,2.77-.07.35.32.77.69.51Z"/><path class="cls-2" d="M261.54,46.8c3.18,5.53,5.48,10.5,5,17l9-3.73c-5.69-5.08-10.06-11.34-15.66-16.51-4.22-3.89-10.19,0-9.19,5.35,1,5.58,3.29,10.55,5.53,15.73l10.1-5.9c-2.67-4.83-5.66-9.48-8.42-14.26q-4.61,3.56-9.23,7.12c13.52,11.55,21.45,27.2,32.08,41.15,4.2,5.49,12.61,2.4,11.24-4.74-1-5.06-3-9.75-4.38-14.72-3.84,1.06-7.7,2.11-11.54,3.18,4.26,13.14,8.68,26.27,16.16,38,4.06,6.34,12.55,2,11.5-4.84-1.44-9.48-6.08-18-7.38-27.44l-10.52,6.13c6,6.81,8.58,15.13,9.65,24l12.57-1.7c-2.39-10.61-4.25-21.28-9-31.14-5.16-10.62-19.79-9.43-24.4-18.87q-2.71,4.74-5.42,9.47a49.13,49.13,0,0,1,15.22,2.31c6.85,1.93,10.74-7.69,4.77-11.31a22,22,0,0,1-7.41-6.14c-1.74,3-3.46,6-5.21,9.08,15.47.72,16.34,13.86,21.74,25a3,3,0,0,0,4.61.59c14.38-17-10.41-36.46-26.35-37.65-4.39-.32-7.74,5.44-5.2,9.08A37.4,37.4,0,0,0,282.9,71.76q2.37-5.66,4.77-11.3a60.61,60.61,0,0,0-18.52-3c-5.07.1-7.46,5.21-5.44,9.47C268,76.1,276.42,77.1,284.59,81.41c8.38,4.43,9.24,24.38,11.09,32.6,1.56,6.94,13.44,5.52,12.56-1.7-1.54-12.64-5.36-23.09-13.54-32.94-3.39-4.07-11.32-.89-10.76,4.46,1.08,10.2,5.74,19.11,7.62,29.1l11.5-4.85c-7.34-10.65-11.87-22.47-15.49-34.81C285.39,65.86,274.24,69,276,76.45c1.21,5,3.12,9.75,4.06,14.81l11.24-4.74c-11.09-14.72-20.28-31.09-34.39-43.25-4.94-4.25-12.67,1.09-9.22,7.12,2.74,4.79,5.63,9.49,8.46,14.23,3.91,6.53,13.37.81,10.1-5.9a59.86,59.86,0,0,1-5-12.76l-9.18,5.36c6,5.49,10.11,12.57,17.05,17,4.5,2.88,9.89-2.76,7.2-7.21-3.58-6-8.38-10.62-13.43-15.35a.86.86,0,0,0-1.35,1Z"/><path class="cls-2" d="M267.81,109.1c2.05,1,2.25,7.7,3,9.75a7.17,7.17,0,0,0,8.59,4.1c8.32-2.43,7.87-14.07,6.77-20.73s-10.09-5.16-12,0c-3.56,9.79.92,22.27,8.93,28.37,3.28,2.48,8.76.61,10.57-2.77,5-9.26.13-28-11.06-30.71-8.28-2-14.9,5.41-15.54,13.08a21.15,21.15,0,0,0,0,3.56c.12,1,.26,2.07.41,3.1,0-.16.41,2.88.22,1.51a17.15,17.15,0,0,1,.12,3.36c.09-1.61-.58,2.58-.56,3.2a7.28,7.28,0,0,0,7.21,7.21c6.41-.08,9.28-5.52,9.7-11.2a26.41,26.41,0,0,0-.49-5.32c-.13-.93-.21-1.85-.29-2.78s.4-2.41-.31-.84c-.23.51-1.17.88-1.61,1-.91,0-1.82,0-2.73.07q-3.25-2.22-1.64-.77c-1.2-1.16.22.42.43.78a6.52,6.52,0,0,1,.82,2,16.6,16.6,0,0,1,.89,8.79l9.77-7.44c-1.65-.45.42,1.19-.91-.67a10.44,10.44,0,0,1-1.39-3.36,23.53,23.53,0,0,1-.4-8.57l-10.6,4.39c.7.56-.14-.63.34.79a8.43,8.43,0,0,1,.31,2.79c0,.82-.5,4-1.67,3.83-1.37-.25-2.76-4.72-3.54-5.83a4.42,4.42,0,0,0-3.17-1.78c-.56-.07-.77.8-.28,1Z"/><path class="cls-2" d="M140.92,145.35c4.21,7.64,13.81,11.54,22.16,11.36,12.62-.28,25.49-3.45,38.17-4.33,16-1.11,31.85-3.63,47.68-5.93,17.21-2.5,37.15-1.63,53.48-7.73A6.06,6.06,0,0,0,299.18,127c-7.85,1.52-16.46-2.1-24.14-3.48-6.67-1.19-13.22-.56-19.78.87q1.75,6.34,3.49,12.68c7.61-2.82,15.25-5.65,21.25-11.3,3.86-3.62,1.13-11.47-4.53-11-11.08,1-20.72,5.45-31.31,8.44l6.48,1.7a4.9,4.9,0,0,1-1.63-1.54c-2.19-2.7-6.36-1.46-8,1a10.28,10.28,0,0,0-1.48,3.45c-1.18,4.76,3.2,9.74,8.18,8.19,9.12-2.84,18.07-8.17,27.78-8.45l-3.24-12c-5.6,4.29-12.14,6.53-18.54,9.36-7,3.11-1.9,13.73,5.06,12,13.32-3.3,28.46.82,42,1.83V126.83c-29.58,1.32-58.59,7-88,10.46-12.51,1.45-25.05,1.47-37.43,3.9-9.87,1.93-24.4,7-33.74,3.19-.57-.24-1,.51-.74,1Z"/><path class="cls-2" d="M274.1,95.64c-.11.15-.23.29-.34.45a1.12,1.12,0,0,0,1.59,1.58l.43-.35c1.21-.95-.72-2.89-1.68-1.68Z"/><path class="cls-2" d="M115.64,73.44a1.75,1.75,0,0,0,0-3.49,1.75,1.75,0,0,0,0,3.49Z"/><path class="cls-2" d="M123.61,64.52c-.16-.57-.36-1.4-1.12-1.4s-.94.83-1.11,1.4c-.53,1.86,2.76,1.86,2.23,0Z"/><path class="cls-2" d="M127.52,56a4,4,0,0,1-.12.41,1.48,1.48,0,1,0,2.86,0,1.79,1.79,0,0,1-.13-.41,1.36,1.36,0,0,0-2.61,0Z"/><path class="cls-2" d="M130.65,63.11a3,3,0,0,0-.07-1.11,1.46,1.46,0,0,0-1.76-1,2.37,2.37,0,0,0-1.48,1.22,1.78,1.78,0,0,0,1.06,2.61,1.8,1.8,0,0,0,2.25-1.72Z"/><path class="cls-2" d="M162,76.46c.29-1.85.24-3.31-1.43-4.47a1.89,1.89,0,0,0-2.75,1.12,8.79,8.79,0,0,0,.17,3.35c.33,2,3.69,2,4,0Z"/><path class="cls-2" d="M161.55,90.92a2.13,2.13,0,0,0,.73-.57,2,2,0,0,0,0-2.82,0,0,0,0,0,0,0c.15.58.31,1.15.46,1.73a4.14,4.14,0,0,0,.1-.93,1.53,1.53,0,0,0-1.91-1.46,3.1,3.1,0,0,0-.8.38h1.79a1.67,1.67,0,0,0-.5-.21c.06,0-1.52-.08-.93,0a2.12,2.12,0,0,0-2,2.67,2.15,2.15,0,0,0,3.11,1.26Z"/><path class="cls-2" d="M164.86,93.8c.43-1.37,1-3,.76-4.43a1,1,0,0,0-1.41-.57c-1.32.68-1.86,2.42-2.66,3.6-1.43,2.12,2.49,4,3.31,1.4Z"/><path class="cls-2" d="M173,81.52a2.08,2.08,0,0,0-.21.21c-2,1.94.62,5.47,3,3.88l.23-.15a2.51,2.51,0,1,0-3-3.94Z"/><path class="cls-2" d="M182.1,78.61c2.81,0,2.81-4.35,0-4.35s-2.81,4.35,0,4.35Z"/><path class="cls-2" d="M127.15,85.62c-.11.33-.07.28.15-.16q-.47.56.09,0a1.21,1.21,0,0,0,.28,2.18,2.77,2.77,0,0,0,.56.11,1.32,1.32,0,0,0,1.27-1,2.24,2.24,0,0,0-.06-1.12,1.2,1.2,0,0,0-2.29,0Z"/><path class="cls-2" d="M116.27,92.16c-.71-.64-1-1.41-2-1.78a.88.88,0,0,0-1.06.6,3.52,3.52,0,0,0,.46,3.17c1.45,2,4.31-.47,2.59-2Z"/><path class="cls-2" d="M71.86,95.13a1.28,1.28,0,0,0,0-2.56,1.28,1.28,0,0,0,0,2.56Z"/><path class="cls-2" d="M75,91.17l-1.64.14c-2.85.25-3.92,4.73-.72,5.32l.11,0a2.77,2.77,0,0,0,3.36-1.9c.09-.35.18-.7.25-1a1.41,1.41,0,0,0-.65-1.61,4.35,4.35,0,0,0-3.07-.68l2.63,4.52,1.25-1.09A2.17,2.17,0,0,0,75,91.17Z"/><path class="cls-2" d="M161.88,49.08l-.13-.09c-.49-.22-.46-.2.05.06a1.21,1.21,0,0,0-.79-.34,1.26,1.26,0,0,0-.58.16c-.36.26-.3.24.17,0a1.09,1.09,0,0,0-.48.24,1.75,1.75,0,1,0,1.76,0Z"/><path class="cls-2" d="M172.54,45.21a2.73,2.73,0,0,0,.3-2.28v1.3a2.67,2.67,0,0,0,.16-.85c0-.2-.07-1.18-.07-.55a1.69,1.69,0,0,0-1.21-1.59c.7.24-.91-.2-.9-.2a8.52,8.52,0,0,0-1.13.21,2.61,2.61,0,0,0-1.82,1.82.75.75,0,0,1,0,.16,2.59,2.59,0,0,0,4.71,2Z"/><path class="cls-2" d="M184,48.11a2.59,2.59,0,0,0,1.82-1.41.66.66,0,0,0-.11-.79c-.63-.63-1.28-.34-2-.27a1.25,1.25,0,1,0,.34,2.47Z"/><path class="cls-2" d="M187.41,57.2a1.42,1.42,0,0,0,2.36.73.57.57,0,0,0,0-1,1.43,1.43,0,0,1-.32-.28c-.29-.26-.27-.19,0,.23-.11-1.58-2.52-1.16-2.08.28Z"/><path class="cls-2" d="M199.35,59.12a3.39,3.39,0,0,0-1.82-2.4l1.13,1.12a7.19,7.19,0,0,0-.8-1,2.19,2.19,0,0,0-2.17-.58,11.34,11.34,0,0,0-1.31.48l1.57-.43h-.12a3.64,3.64,0,0,0-3.48,2.66l-.06.18c-.82,2.26,1.29,4.62,3.53,4.62,2.57,0,3.91-2.32,3.53-4.62Z"/><path class="cls-2" d="M156.55,29.19l-.13-.12.51.9a3.34,3.34,0,0,0-.32-.81l-.32-.42-.13-.17a2,2,0,0,0-2.41-.16,2.05,2.05,0,0,0-1,1.81v.17a2.17,2.17,0,0,0,2.14,2.13,2.1,2.1,0,0,0,.86-.13,1.94,1.94,0,0,0,.84-3.2Z"/><path class="cls-2" d="M158.89,24.54a3.93,3.93,0,0,0,3.61-.5,1.66,1.66,0,0,0,0-2.81,3.9,3.9,0,0,0-3.61-.5,2,2,0,0,0,0,3.81Z"/><path class="cls-2" d="M175.37,26.33a4.12,4.12,0,0,0,2.34.87,3,3,0,0,0,2.44-1.26,1.45,1.45,0,0,0,.38-1.44C180,23,178.08,23.23,176.79,23a1.85,1.85,0,0,0-1.42,3.37Z"/><path class="cls-2" d="M185.25,32.69a3.53,3.53,0,0,0,1.81-4.17v1.41a6,6,0,0,0,0-1.8,2.06,2.06,0,0,0-1.5-1.5,5.85,5.85,0,0,0-1.82,0h1.43A3.54,3.54,0,0,0,181,28.46a3.12,3.12,0,0,0,4.24,4.23Z"/><path class="cls-2" d="M190.46,30.4a2.89,2.89,0,0,0,3.06.1,2.29,2.29,0,0,0,1-2.53l0-.09c-.06.5-.13,1-.18,1.5a1.57,1.57,0,0,1,.12-.3c.59-1.39-.36-3.09-2-2.65l-.31.09,1.51.19a3.83,3.83,0,0,0-1.78-.37l1.14.31-.25-.18a2.27,2.27,0,0,0-3.11.82,2.31,2.31,0,0,0,.82,3.11Z"/><path class="cls-2" d="M195.68,31a1.72,1.72,0,0,0,.4.26c-.4-.32-.28-.24.34.25a3.72,3.72,0,0,0,1.85.47,3.38,3.38,0,0,0,3.3-3.17c-.25.59-.49,1.18-.74,1.78a2.92,2.92,0,0,0,.88-2.77v1a2.61,2.61,0,0,0,.06-.27,1.63,1.63,0,0,0-1.11-2l-.24-.06.82.48a2.78,2.78,0,0,0-2.19-.72l1.27.34a2.74,2.74,0,0,0-2-.42,2.26,2.26,0,0,0-1,.19l-.68.29c-.49.31-.17.31.92,0A2.39,2.39,0,0,0,195.68,31Z"/><path class="cls-2" d="M203.41,35.44a5.78,5.78,0,0,0,6.47-.1,5.23,5.23,0,0,0,2.53-4.42,5.17,5.17,0,0,0-3.76-5,6.27,6.27,0,0,0-6.26,1.49,5,5,0,0,0-1.5,3.6,5.26,5.26,0,0,0,2.52,4.38Z"/><path class="cls-2" d="M234.48,48.78A4.54,4.54,0,1,0,230,44.24a4.58,4.58,0,0,0,4.53,4.54Z"/><path class="cls-2" d="M249.27,62.55c0,.05,0,.08,0,.12a2.39,2.39,0,0,0,2.27,1.72h.12a2.51,2.51,0,1,0-2.43-1.84Z"/><path class="cls-2" d="M219.55,67.05a1.69,1.69,0,0,0,0-3.37,1.69,1.69,0,0,0,0,3.37Z"/><path class="cls-2" d="M213.23,73.77a1.55,1.55,0,0,0,0-3.1,1.55,1.55,0,0,0,0,3.1Z"/><path class="cls-2" d="M213.65,81.62a3.65,3.65,0,0,0-.74-3.94l.47.79a4.84,4.84,0,0,0-.77-1.54,1.15,1.15,0,0,0-1.94,0,5.06,5.06,0,0,0-.77,1.54c.17-.26.32-.52.47-.79a3.65,3.65,0,0,0-.74,3.94,2.34,2.34,0,0,0,4,0Z"/><path class="cls-2" d="M166.77,7.14a30.84,30.84,0,0,1,4.76-1.57c1.68-.5,3.36-.41,5-1.07a.9.9,0,0,0,.2-1.63c-3.69-2.63-8.26.23-11.16,2.71-.91.78.25,2,1.19,1.56Z"/><path class="cls-2" d="M11.55,140.65a1.76,1.76,0,0,0,0-3.51,1.76,1.76,0,0,0,0,3.51Z"/><path class="cls-2" d="M31,125.82a1.24,1.24,0,0,0-.1.2,1.77,1.77,0,0,0,2,2.57,2,2,0,0,0,1.44-1.47,1.32,1.32,0,0,0-.92-1.62,2.71,2.71,0,0,1,.25.17,1.63,1.63,0,0,0-.77-.45,1.71,1.71,0,0,0-1,0c.51.14,1,.28,1.55.4l-.15-.11a1.45,1.45,0,0,0-2.27.29Z"/><path class="cls-2" d="M41.29,122.3c1.09,1.06,3,.65,2.94-1.06,0-1.19-1-1.29-1.91-1.14l1.11.14a1.11,1.11,0,0,1-.38-.22c-1.39-.92-2.92,1.14-1.76,2.28Z"/><path class="cls-2" d="M48.2,119.05a2.61,2.61,0,0,0,.38,1,1.82,1.82,0,0,0,2,.81c1.33-.25,1.61-1.72,1.42-2.82a1.43,1.43,0,0,0-2.09-.85,3.58,3.58,0,0,0-1.09,1l.61-.62-.1.07.88-.23h-.09c.3.07.59.16.88.24.11.15.06.1-.17-.16a1.57,1.57,0,0,0-2.6,1.51Z"/><path class="cls-2" d="M97.21,125.39a2.6,2.6,0,0,0,.54-2.58,1.19,1.19,0,0,0-1.46-.84,7.3,7.3,0,0,0-1.64.85,1.88,1.88,0,1,0,2.56,2.57Z"/><path class="cls-2" d="M99.15,127.74a2.34,2.34,0,0,0,3.27.18,3,3,0,0,0,.91-3.19.94.94,0,0,0-1.13-.65,14.78,14.78,0,0,0-2.43,1.07l.91-.25a.35.35,0,0,0,.11,0c-1.75-.56-2.63,1.61-1.64,2.81Z"/><path class="cls-2" d="M111.41,129.72a2,2,0,0,0,2-2.93,1.09,1.09,0,0,0-1.24-.52,7.31,7.31,0,0,0-1.52.5,1.57,1.57,0,0,0-.73,1.78,1.64,1.64,0,0,0,1.52,1.17Z"/><path class="cls-2" d="M118.88,132.8c.75.64,1.57,1.34,2.61.74a1.71,1.71,0,0,0,.24-2.66,1.46,1.46,0,0,0-1.44-.38,1.24,1.24,0,0,0-.54.29.94.94,0,0,0-.34.4s-.42,1.18-.19.53l.73-.93a.06.06,0,0,0,0,0l1.21-.16a5.24,5.24,0,0,0-.88-.16c-1.26-.29-2.48,1.37-1.35,2.31Z"/><path class="cls-2" d="M61.54,127.8l-.19.1a1.5,1.5,0,0,0,0,2.57s.13.07.19.12a1.62,1.62,0,1,0,0-2.79Z"/><path class="cls-2" d="M55.62,136.47a7.68,7.68,0,0,1-.83-1.34,1.44,1.44,0,0,0-2.62,1.1,5.56,5.56,0,0,0,.85,2.23c1.47,2,4.28-.42,2.6-2Z"/><path class="cls-2" d="M59.19,145.87c16-1.76,33.87-.8,49.33-5.18a1,1,0,0,0-.27-1.94c-15.44-1.39-34.49.6-49.28,5.44-.88.28-.78,1.79.22,1.68Z"/><path class="cls-2" d="M147.27,113.5c-.06-.13-.14-.26-.19-.4l-.12-.17q-.44-.5,0-.09a.74.74,0,0,0-.92-.71,2.51,2.51,0,0,0-1.9,1.37,1.81,1.81,0,1,0,3.13,0Z"/><path class="cls-2" d="M151.65,110.87c1.18-1,1-2.16.82-3.52a1.78,1.78,0,0,0-2.19-1.24,3.87,3.87,0,0,0-2.46,1.81,2.45,2.45,0,0,0,.38,3,2.48,2.48,0,0,0,3.45,0Z"/><path class="cls-2" d="M157.41,119.5a2.06,2.06,0,0,0,3.19.53,2.7,2.7,0,0,0,.43-3,1.44,1.44,0,0,0-1.25-.71,1.78,1.78,0,0,0-1.28.48c-.11.12-1,1.1-.6.68l.8-.47h.83l-.19-.05a1.72,1.72,0,0,0-1.93,2.51Z"/><path class="cls-2" d="M166.27,120.63c1.12,1.53,3.34,1.75,4.19-.23.59-1.34-.09-3.08-1.77-2.6h.81a1.91,1.91,0,0,0-1.06,0c-.56.2-.58.23-.05.12-.7.08-.71.09,0,0-1.46-.61-3,1.45-2.08,2.71Z"/><path class="cls-2" d="M174.57,123.28a4.5,4.5,0,0,0,3.39,1.38,4.14,4.14,0,0,0,4.1-4.12v-.12c-.17.65-.34,1.3-.52,2a3.64,3.64,0,0,0,.42-3.29v1.67a2.38,2.38,0,0,0,0-.26c.38-2.19-1.32-4.33-3.67-3.68l-.25.06,2.43.32a3.69,3.69,0,0,0-2.3-.62l2.72,1.13a.27.27,0,0,0-.08-.07,4.25,4.25,0,0,0-5.82,0,3.57,3.57,0,0,0-1,1.29,3.8,3.8,0,0,0,.56,4.36Z"/><path class="cls-2" d="M208.49,111a2.61,2.61,0,0,0,2.48-.67,1.77,1.77,0,0,0-.78-2.93,3.06,3.06,0,0,0-1.7-.09c-1.81.38-1.85,3.33,0,3.69Z"/><path class="cls-2" d="M216,117a3.25,3.25,0,0,0,2.43-1,2.87,2.87,0,1,0-4.51-3.48c-.19.3-.67,1.49-.21.49a2.69,2.69,0,0,0,2.29,4Z"/><path class="cls-2" d="M257.54,108.88a1.85,1.85,0,0,0,0-3.69,1.85,1.85,0,0,0,0,3.69Z"/><path class="cls-2" d="M248.82,104.74a5,5,0,0,0-2.33-.09,3.36,3.36,0,0,0-2.36,4.15,1.17,1.17,0,0,0,.05.11A3.48,3.48,0,0,0,251,108c0-.14,0-.29-.05-.43a3,3,0,0,0-2.15-2.82Z"/><path class="cls-2" d="M231.16,109.38a3.93,3.93,0,1,0-3.92-3.92,4,4,0,0,0,3.92,3.92Z"/><path class="cls-2" d="M243.63,102.57a6.15,6.15,0,1,0-6.15-6.15,6.2,6.2,0,0,0,6.15,6.15Z"/><path class="cls-2" d="M246.7,93.76a3.55,3.55,0,0,0-.63,1.45,4,4,0,0,0,1.75,4.31c.43.29,1.93,1,.45.24a4.38,4.38,0,1,0,3.38-8,4.5,4.5,0,0,0-5,2Z"/><path class="cls-2" d="M186.91,93.7a2.19,2.19,0,0,0-1.63-2.12,1.48,1.48,0,0,0-1.78,1,2.28,2.28,0,0,0,.26,2c.93,1.27,3.17,1,3.15-.85Z"/><path class="cls-2" d="M182.31,94.17a1.75,1.75,0,0,0-1.79-.59,1.41,1.41,0,0,0-.86.69,1.2,1.2,0,0,0-.17.64c0,1.14.36-.81.3-.74a1.78,1.78,0,1,0,2.52,0Z"/><path class="cls-2" d="M175.71,104.42c.41-.46.73-1,1.11-1.46a4.33,4.33,0,0,0-.69-5.31l-.3-.27a4,4,0,0,0-4.71-.61l-.3.19a4.45,4.45,0,0,0-1.58,6,6,6,0,0,0,1.9,2.05,3.73,3.73,0,0,0,4.57-.59Z"/><path class="cls-2" d="M135.15,101.3a7.29,7.29,0,0,1-1.31-.52.53.53,0,0,0-.72.72c.38.86.79,1.54,1.77,1.74a1,1,0,1,0,.26-1.94Z"/><path class="cls-2" d="M128.35,108.49c.09.43.09.39,0-.11a1.43,1.43,0,0,0-.39-.67c-.24-.28-.39-.63-.66-.9-.48-.47-1.44-1-2.1-.58s-.69,1.28-.54,2.13,1.25,1.54,1.94,1.9a1.3,1.3,0,0,0,1.75-1.77Z"/><path class="cls-2" d="M116.22,117.71a5.49,5.49,0,0,0,.65-2.83c-.07-1.08-.83-2.69-2.17-2.52-2.61.33-1.36,3.88-.7,5.35a1.3,1.3,0,0,0,2.22,0Z"/><path class="cls-2" d="M111.29,122.74a6.83,6.83,0,0,0,1.51-2.56,1.08,1.08,0,0,0-1.56-1.22c-.81.39-1.19,1.3-1.81,1.91-1.23,1.22.8,3.17,1.86,1.87Z"/><path class="cls-2" d="M124,125.45a3.68,3.68,0,0,0,1.22-3.29c-.06-.46-.63-.56-1-.4a9.44,9.44,0,0,0-2.25,1.68c-1.37,1.23.78,3.37,2,2Z"/><path class="cls-2" d="M132.89,124.22c.52-1.2,1.79-2.62,1-4a.94.94,0,0,0-.83-.46c-1.42.08-2.32,1.66-3,2.75-1.16,1.85,2,3.58,2.85,1.67Z"/><path class="cls-2" d="M139.28,122.87a3.17,3.17,0,0,0,2-3.18.83.83,0,0,0-.82-.82,1.65,1.65,0,0,0-.91.28.77.77,0,0,1-.38.17c-.2,0-1.2.36-.29.31-2.54.15-1.7,4,.43,3.24Z"/><path class="cls-2" d="M146,121.21a3.36,3.36,0,0,0,3.36-1,2.75,2.75,0,0,0,.39-3.21,1.76,1.76,0,0,0-1.52-.87h.19l1,.59a3.54,3.54,0,0,0-3.42-.71c-2.35.75-2.72,4.62,0,5.15Z"/><path class="cls-2" d="M189.83,98.24c2,1.56,4.37,1.39,5.8-.83a3.56,3.56,0,0,0-1.26-4.83c-2.15-1.26-4.34,0-5.19,2.11-.14.36-.09.23.15-.36a3.22,3.22,0,0,0,.5,3.91Z"/><path class="cls-2" d="M196.15,95.63c1.43,1.78,4.32.19,3.85-1.95-.15-.7-.15-1-.87-1.33a2.85,2.85,0,0,0-1.33.08c.06,0-1.27.39-.71.28h1l-.2,0c-1.85-.59-2.76,1.7-1.72,3Z"/><path class="cls-2" d="M205.92,94.72c1.11-.71,2.05-2.61.71-3.66.16.4.33.79.49,1.19V92a1.53,1.53,0,0,0-1.91-1.45c.38-.13-.66.1-.78.12h1.16l-.21,0a2.24,2.24,0,1,0,.54,4.09Z"/><path class="cls-2" d="M212.59,92.07a.41.41,0,0,0,.07-.11,1.49,1.49,0,0,0,0-1.5.41.41,0,0,0-.07-.11,1.71,1.71,0,1,0,0,1.72Z"/><path class="cls-2" d="M217.31,91.64a2.83,2.83,0,0,0,1.65-1,3.15,3.15,0,0,0-.62-4.9,3.07,3.07,0,0,0-.85-.42c-.15,0-1.94,0-.73,0a3.14,3.14,0,0,0-3.12,3.12,3,3,0,0,0,.17,1.23,2.92,2.92,0,0,0,3.5,2Z"/><path class="cls-2" d="M216.39,72.68h.22c1.55-.06,3.36-1.38,3.13-3.13a3.31,3.31,0,0,0-1.49-2.7c-.22-.08-.44-.18-.66-.28-.94-.11-1-.12-.14,0a2.91,2.91,0,0,0-1.89.07,3.18,3.18,0,0,0-2.27,3,3.13,3.13,0,0,0,3.1,3.1Z"/><path class="cls-2" d="M224.65,70.33a2.43,2.43,0,0,0,2-2.33.79.79,0,0,0-.79-.79c-.71.08-1.29.47-1.94.58-1.68.26-1,2.8.7,2.54Z"/><path class="cls-2" d="M239.6,66.71A5.57,5.57,0,1,0,234,61.14a5.62,5.62,0,0,0,5.57,5.57Z"/><path class="cls-2" d="M247.52,61.6c4.67,0,4.67-7.25,0-7.25s-4.68,7.25,0,7.25Z"/><path class="cls-2" d="M223.25,62.4c3.65,0,3.65-5.67,0-5.67s-3.66,5.67,0,5.67Z"/><path class="cls-2" d="M211.65,64.48a5,5,0,0,1-1.08.39c-1.24.3-.83,1.95.28,2.07a2.18,2.18,0,0,0,2.2-1.06c.66-.89-.56-1.82-1.4-1.4Z"/><path class="cls-2" d="M195.07,73.53c.34.4.43.44.28.15a1,1,0,0,0-.34-.31.48.48,0,0,0-.49,0c-.91.61-.32,1.58.55,1.75a.82.82,0,1,0,0-1.59Z"/><path class="cls-2" d="M185.2,77.5a5.61,5.61,0,0,0-.09-1.83.93.93,0,0,0-1.69-.23c-.15.24-.43.29-.63.5a2.35,2.35,0,0,0-.56,1.15c-.56,2.14,2.87,2.63,3,.41Z"/><path class="cls-2" d="M195.29,67.34a1.45,1.45,0,0,0,0-2.9,1.45,1.45,0,0,0,0,2.9Z"/><path class="cls-2" d="M203.77,63.7c.34-.81,1.1-1.5,1.29-2.34a.87.87,0,0,0-.58-1c-1.52-.62-3,.94-3.78,2.06-1.29,2,2.1,3.64,3.07,1.3Z"/><path class="cls-2" d="M209.76,58.27a2.23,2.23,0,0,0,1.75.82A2.26,2.26,0,0,0,213.44,58a2.6,2.6,0,0,0-.37-3.12l.5.85a1.94,1.94,0,0,0-.95-1.34l.69.9a6.31,6.31,0,0,0-.35-.91.89.89,0,0,0-1-.43,3.32,3.32,0,0,0-1.13.67l1.06-.44a1.86,1.86,0,0,0-1.5.7l.85-.49c-1.2.47-2.4,1.75-1.82,3.17V56.4a.29.29,0,0,1,0,.09l2.86-1.16-.13-.06a1.92,1.92,0,0,0-2.33,3Z"/><path class="cls-2" d="M218.22,53.7a4.33,4.33,0,0,0,1.17-3.21,2.62,2.62,0,0,1,0-.28c0,.48,0,.29.09-.58a6.48,6.48,0,0,0-.24-1.43,2.2,2.2,0,0,0-2.07-1.59,4.1,4.1,0,0,0-3.45,1.54A4.15,4.15,0,0,0,213,53a3.31,3.31,0,0,0,5.21.67Z"/><path class="cls-2" d="M224.58,42.51c.78.56,0,0-.3-.23-2.33-1.68-5.34,1.57-3.86,3.87,0,0,0,0,0,.05a2.88,2.88,0,0,0,3.88,1,1.28,1.28,0,0,0,.25-.15,2.68,2.68,0,0,0,0-4.56Z"/><path class="cls-2" d="M231.48,44.58l.12-.14a3.37,3.37,0,0,0,.86-3.24,3.51,3.51,0,0,0-2.33-2.33l-.18-.08c-2.53-1.06-4.89,2-4.26,4.26a3.5,3.5,0,0,0,5.79,1.53Z"/><path class="cls-2" d="M232.92,52.17a3,3,0,0,0,1.72-2.64,2.48,2.48,0,0,0-1.27-2.2l-.09,0a2.48,2.48,0,0,0-3.36.88c-.21.41-.41.82-.58,1.25a2.36,2.36,0,0,0,.62,2.37,2.51,2.51,0,0,0,3,.39Z"/><path class="cls-2" d="M224.37,60.62c0-.47.42-.63.31-1.17a.4.4,0,0,0-.72-.09c-.25.42-.62.6-.76,1.1-.24.81,1.12,1,1.17.16Z"/><path class="cls-2" d="M218.91,65.47a12,12,0,0,0,.75-1c.16-.3,0-.22.26-.43l.36-.58a1.44,1.44,0,0,0-.23-1.75c-1.38-1.16-3-.26-4.29.61a2.31,2.31,0,1,0,3.15,3.16Z"/><path class="cls-2" d="M226.36,67a3.13,3.13,0,0,0,3.43.31.42.42,0,0,0,0-.73c-.66-.32-1.71-.29-2.27-.74-.82-.67-2,.49-1.16,1.16Z"/><path class="cls-2" d="M232.31,70.55a4,4,0,0,0,4,1.1c2.17-.58,1.92-3.47,0-4.15a6.48,6.48,0,0,0-.94-.21l-.6-.07h.1a2.12,2.12,0,0,0-2.56,3.32Z"/><path class="cls-2" d="M239.33,102.81c4.08,0,4.08-6.32,0-6.32s-4.07,6.32,0,6.32Z"/><path class="cls-2" d="M227.37,101.76a2,2,0,0,1,.22-1,4.72,4.72,0,0,0,.23-1.35,1.59,1.59,0,0,0-2.38-1.38,4.91,4.91,0,0,0-2.1,3.68c-.33,2.51,4.08,2.66,4,0Z"/><path class="cls-2" d="M219.55,99.58a3,3,0,0,0-2,.66.65.65,0,0,0,0,.93,3.09,3.09,0,0,0,2,.66c1.45.1,1.45-2.35,0-2.25Z"/><path class="cls-2" d="M206.89,104a7,7,0,0,1-2.92,1.17c-.75.1-1.61-.17-2.22.39a.56.56,0,0,0-.14.55c.3,1.11,1.77,1.06,2.68,1a8.41,8.41,0,0,0,3.66-1.28c1.17-.7.07-2.57-1.06-1.81Z"/><path class="cls-2" d="M196.19,109.1a27.89,27.89,0,0,0,7.83-5.47,1.16,1.16,0,0,0-1.13-1.93,28,28,0,0,0-8.5,4.33,1.78,1.78,0,0,0,1.8,3.07Z"/><path class="cls-2" d="M232.09,90.21A5.87,5.87,0,0,0,230.8,93c.13-.34.28-.68.42-1-.23.24-.49.43-.71.68a.93.93,0,0,0,.18,1.45,3.44,3.44,0,0,0,5-2.39,2,2,0,0,0-3.61-1.52Z"/><path class="cls-2" d="M236.86,93.43l.11.11a3.31,3.31,0,0,0,5.5-1.45,4.34,4.34,0,0,0,.12-.88A3.32,3.32,0,0,0,237,88.88l-.11.11a3.2,3.2,0,0,0,0,4.44Z"/><path class="cls-2" d="M237,106.24a5.66,5.66,0,0,0,3.12-1.37,1.14,1.14,0,0,0,.29-1.14,1.25,1.25,0,0,0-.29-.51,1.13,1.13,0,0,0-1.13-.29,6.59,6.59,0,0,1-2,.67c-1.73,0-1.67,2.82,0,2.64Z"/><path class="cls-2" d="M243.26,106.57c.61,1.43,1.83,2.44,3.4,1.58a1.92,1.92,0,0,0,.4-3l-.16-.15.6,1.43c-.08.39-.07.43,0,.13a2.22,2.22,0,0,0-2.13-2.8c-1.3,0-2.69,1.44-2.14,2.8Z"/><path class="cls-2" d="M242.8,110.2c-.08-1.57-1.39-3.28-3.16-2.77-1.56.46-1.41,2-1.06,3.33.63,2.31,4.34,1.89,4.22-.56Z"/><path class="cls-2" d="M234.67,108.69c-.44-.22-.58-.32-1-.52a1.44,1.44,0,0,0-2.13,1.23c.08,1.31.71,2.68,2.25,2.55s2.59-2.43.87-3.26Z"/><path class="cls-2" d="M226.94,108.38c-.26,0-.46-.21-.79-.21a2.84,2.84,0,0,0-.92.12,1.49,1.49,0,0,0-.88,2.16,3.14,3.14,0,0,0,2.1,1.5,1.81,1.81,0,1,0,.49-3.57Z"/><path class="cls-2" d="M219,111a25.17,25.17,0,0,0-2.29-1.29,1.32,1.32,0,0,0-1.25.33,2.3,2.3,0,0,0-.68,2.34,3.67,3.67,0,0,0,2.12,2.21c2.36,1.24,4.47-2.34,2.1-3.59Z"/><path class="cls-2" d="M204.78,113.92l.65.17c.22.2.22.19,0,0a2.47,2.47,0,0,0-1.33-.81l.91.54a2.74,2.74,0,0,0-1.24-.7,1.76,1.76,0,0,0-1.9.77,3.43,3.43,0,0,0,2.9,5.27,2.6,2.6,0,0,0,2.61-2.6,2.67,2.67,0,0,0-2.61-2.61Z"/><path class="cls-2" d="M192.65,116.06l-.27,0,3,2.3c-.09-.26-.16-.52-.25-.78.09,1,.14,1.29.12.79a5.11,5.11,0,0,0-2.54-4.42,14.7,14.7,0,0,0-1.53-.66c-2.3-.94-5.59,1-6,3.4a6.88,6.88,0,0,0-.19,1.68c.2,2.23,1.42,4.41,3.77,4.94a6.43,6.43,0,0,0,2,.24c2.06-.16,3.17-1.13,4.31-2.77l-1.88,1.44.28-.09a3.18,3.18,0,0,0,2.27-3,3.12,3.12,0,0,0-3.1-3.11Z"/><path class="cls-2" d="M126.7,81c-.17-.12-.17-.12,0,0a1.49,1.49,0,0,0-2.12,0c.19-.12.19-.12,0,0-1.57,1.17-1.18,3.88,1,3.88s2.62-2.71,1-3.88Z"/><path class="cls-2" d="M115.64,88.64c-1.27-.07-2.45-.6-3.7-.59a1,1,0,0,0-1,1c.08,2.48,2.54,3.63,4.75,3.63,2.64,0,2.62-4,0-4.09Z"/><path class="cls-3" d="M81.82,99.26l.52-.21c-.3,0-.12,0,.56-.09a7.59,7.59,0,0,0,1.72-.83c1.5-1.14,2.59-2.64,2.08-4.62a2.48,2.48,0,0,0-2.41-1.84c-1.78.16-2.69,1.09-3.64,2.5a13.65,13.65,0,0,0-1,2.9,1.79,1.79,0,0,0,2.19,2.19Z"/><path class="cls-3" d="M249.35,146.47c8.9-2.63,17.81-5,26.92-6.9,8.13-1.64,24.25-7,31.69-1.2l.51-4c-11.31,5.62-24.4,6-36.67,3.89-.18,1.36-.37,2.71-.55,4.07,12.9-1.37,25-1,36.42-7.67,1.76-1,3.16-3,2.64-5.16-2-8.23-2.44-13.27,1.41-21.52,6.48-13.94,2.16-24.35-6.78-36.19-7.83-10.38-15.18-22.56-28.46-26.15-2-.54-3.33,2.43-1.41,3.37,17.75,8.75,34,29,30.93,49.78-1.35,9-10.33,1.87-16.5,3-7.67,1.36-13.39,5.06-19,10.36-.24.24.12.59.38.38,10.43-8.62,21.12-11.15,33.32-4.14a1.55,1.55,0,0,0,2.1-.55c12.23-23.78-8.35-51.42-29.4-62-.47,1.12-.95,2.24-1.43,3.36,12.52,3.48,18.33,15.17,25.57,24.86,3.91,5.21,7.3,10.58,9.14,16.88,2.2,7.56-2.91,13.7-5.21,20.3s-2.08,12.06.57,18.53c3.1,7.59-30.39,8.41-34.32,8.42-2.31,0-2.87,3.55-.56,4.08A67.13,67.13,0,0,0,310.43,139a2.58,2.58,0,0,0,1.13-4.25c-6.47-7.09-19-4-27.15-2.41-12.2,2.37-24,7.87-35.57,12.25-1.12.43-.69,2.2.51,1.85Z"/><path class="cls-3" d="M260.22,119.08a2.9,2.9,0,0,1-2.3-3.08.4.4,0,0,0-.28-.37c-3.79-.91-6.33-.91-9.91.61-2,.88-4,2.49-5.92,3.63-5.36,3.21-11.87,2.8-17.85,2.79s-11.18,1.72-16.57,4c-9.54,4.11-19.52,2.46-29.08,5.83a.36.36,0,0,0,.19.7c8.79-1.66,17.94-.88,26.38-4.06,8.93-3.37,15.83-5.21,25.43-5.57a31,31,0,0,0,14-4.28c5.32-2.94,10.48-2.47,15.81-.06.12,0,.22-.13.1-.18Z"/><path class="cls-3" d="M292.84,121.76l-.35.44a1.49,1.49,0,0,0,2.11,2.1L295,124c1.57-1.26-.94-3.77-2.19-2.2Z"/><path class="cls-3" d="M289.13,115c-.39-.46-.56-.94-1.13-1.26a.77.77,0,0,0-.79,0c-1.35.8-.92,2.27-.07,3.27,1.17,1.4,3.16-.62,2-2Z"/><path class="cls-3" d="M283.56,98.94a9.48,9.48,0,0,0-.77-.62.91.91,0,0,0-.93,0c-.27.19-.52.41-.77.62-1.2,1-.19,3,1.24,3s2.43-2,1.23-3Z"/><path class="cls-3" d="M285.5,91.64c2.59,0,2.59-4,0-4s-2.6,4,0,4Z"/><path class="cls-3" d="M311.4,95.14a2.62,2.62,0,0,0-1.91.75c-.2.2-1,.79-.14.21l1.4-.38h-.09l2,.82c.19.14.3.49.21.14s-.16-.64-.26-1a8,8,0,0,1-.34-1.86c-.05-3.22-4.75-3.17-4.94,0-.11,1.76-.58,3.5-.72,5.27-.29,3.44,5,3.38,5.33,0a12.07,12.07,0,0,0-.68-6.22c-.12-.26-.33-.74,0,.19a3.37,3.37,0,0,0-1.52-2,4.72,4.72,0,0,0-3.15-.4c-1.71.29-3.05,1.9-3.78,3.36-1.21,2.43-1.61,5,.16,7.29-.26-.45-.54-.91-.8-1.37a5.61,5.61,0,0,0,.58,1.62,2.83,2.83,0,0,0,2.43,1.4h0L303,101.79a3.41,3.41,0,0,0,1.72,1.84,1.59,1.59,0,0,0,2.12-.56,4.57,4.57,0,0,0,.67-1.87l-1.72,1.73c1.44-.3,2-1.67,2.29-2.93-.27.46-.53.92-.8,1.37a6.71,6.71,0,0,0,1.4-2.55,5.66,5.66,0,0,0,.23-.9c0-.18.47-1.37.1-.49a9,9,0,0,1,.78-1.39c-.38.6,0,.25-.61.65-.8.49-1.75.39-.88.34l-1.53-.41c-.88-.5-.85-1.05-.49-.35-.29-.57.06.35.08.41a11.1,11.1,0,0,1,.18,2.44h5.33c0-1.76.34-3.51.33-5.27h-4.94c.13,1.74,0,4.4.89,6,2.13,3.64,7.05-.11,5.31-3.46a2.39,2.39,0,0,0-2.09-1.2Z"/><path class="cls-3" d="M305.87,133.61c.9,2.16,3.33,3.43,4.76,5.26,1.12,1.44,3.37-.13,2.93-1.71a50,50,0,0,1-1.31-6.84l-6.72,2.83c1.26,2.32,3.34,4.31,5.13,6.22,2.45,2.6,6.62.53,6.74-2.79,0-1.09.11-2.17.16-3.24a11.2,11.2,0,0,0-1.35-4.85c.17,1.25.33,2.49.5,3.75a5.79,5.79,0,0,0-.69-4.74A5.44,5.44,0,0,0,309.9,125a5.54,5.54,0,0,0-4,5.22,8.2,8.2,0,0,0,.49,3.47,6.33,6.33,0,0,0,2.82,3.31,4.07,4.07,0,0,0,4.23,0,6.31,6.31,0,0,0,2.81-3.31,8.2,8.2,0,0,0,.49-3.47l-8.15,4.68a5.94,5.94,0,0,0,4.7.72l-3.75-.5c.19.12,1.19.87.22.09q-.54-.79-.18-.24c.21.4.17.28-.1-.32.11.42.11.33,0-.27,0,.21,0,.41,0,.62,0,.52,0,1,0,1.56,2.25-.94,4.49-1.87,6.74-2.79-1.72-1.64-3.23-3.46-4.93-5.1a3.74,3.74,0,0,0-5.21,0c-1.6,1.6-1.41,4.72.75,5.79.14.08.3.15.45.22.9.29,1.11.4.62.33a5.07,5.07,0,0,1,.84,1c.52.84,1,1.67,1.59,2.48.8-.81,1.6-1.61,2.41-2.4a29.82,29.82,0,0,0-2.85-1.75,24.71,24.71,0,0,0-3.11-1.69.75.75,0,0,0-.93.93Z"/><path class="cls-3" d="M254.37,148.35c2.69.09,5.38-.76,8-1.28,3.63-.74,7.26-1.4,10.84-2.31,1.76-.45,1-2.9-.73-2.65a52.7,52.7,0,0,1-19.83-.57c.11.86.22,1.73.34,2.58,6.79-3.11,16.23,5.82,21.3-1.21.49-.69-.19-1.56-.92-1.59-3.61-.12-7.14.48-10.79.32s-6.91-.64-10.69-.1c-1.4.19-1.3,2.45,0,2.73a57.26,57.26,0,0,0,21.32.49c-.24-.89-.49-1.77-.73-2.65-3.11.83-6.26,1.51-9.41,2.18s-6.43,1-9,2.76a.7.7,0,0,0,.35,1.3Z"/><path class="cls-3" d="M304,140.11a1.43,1.43,0,0,0,0-2.85,1.43,1.43,0,0,0,0,2.85Z"/><path class="cls-3" d="M148,141.32a2,2,0,0,0,.75,1.81c1,.73,1.87-.88.94-1.59.19.11.24,0,.15-.22a.92.92,0,0,0-1.84,0Z"/><path class="cls-3" d="M160,141.16c-.06-.17-.13-.32-.19-.48a.43.43,0,0,0-.83,0c-.05.16-.12.31-.18.48-.41,1,1.6,1,1.2,0Z"/><path class="cls-3" d="M170.6,141.49l-.26-.38a.43.43,0,0,0-.74,0c-.09.12-.17.24-.26.38-.91,1.34,2.17,1.34,1.26,0Z"/><path class="cls-3" d="M177.07,141.16l.42-.1a.83.83,0,0,0,0-1.59l-.42-.09c-1.48-.34-1.48,2.11,0,1.78Z"/><path class="cls-3" d="M235.11,145.28a3.08,3.08,0,0,0,1.31.72,1.06,1.06,0,0,0,.81-1.94,2.36,2.36,0,0,1-.53-.36c-1-1-2.66.63-1.59,1.58Z"/><path class="cls-3" d="M240.3,141.13c-.06-.16-.12-.32-.19-.47a.53.53,0,0,0-1,0c-.06.15-.13.31-.18.47-.48,1.16,1.86,1.16,1.39,0Z"/><path class="cls-3" d="M247.52,129.55c2.5,0,2.5-3.89,0-3.89a2,2,0,0,0,0,3.89Z"/><path class="cls-3" d="M220.52,136.53c-.11-.16-.24-.31-.37-.47a.84.84,0,0,0-1.19,0l-.37.47a1.14,1.14,0,0,0,1,1.7c.77,0,1.51-1,1-1.7Z"/><path class="cls-3" d="M222.51,140.58c.69-.8,1.55-2,1.35-3.12a.64.64,0,0,0-1.15-.14c-.37.66-1.31,1.08-1.88,1.58-1.16,1,.67,2.83,1.68,1.68Z"/><path class="cls-3" d="M253.19,85.73a3.52,3.52,0,0,1,.09.42,1.14,1.14,0,0,0,2.18,0l.09-.42a1.21,1.21,0,1,0-2.36,0Z"/><path class="cls-3" d="M248.78,76.17l-.6-.24a.53.53,0,0,0-.65.65c.08.2.16.41.25.61.62,1.56,2.57-.4,1-1Z"/><path class="cls-3" d="M208,91.85a.11.11,0,0,0,0-.22.11.11,0,0,0,0,.22Z"/><path class="cls-3" d="M201.12,83.53a3.24,3.24,0,0,0-.66-1.53.5.5,0,0,0-.85,0,3.35,3.35,0,0,0-.66,1.53,1.11,1.11,0,1,0,2.17,0Z"/><path class="cls-3" d="M192.83,76.09a2,2,0,0,0,0-.24,1.24,1.24,0,0,0-2.38,0,1,1,0,0,0,0,.24,1.27,1.27,0,1,0,2.47,0Z"/><path class="cls-3" d="M183.59,91.17a2,2,0,0,0-.11-.2,1,1,0,0,0-1.71,0,2,2,0,0,1-.11.2,1.12,1.12,0,1,0,1.93,0Z"/><path class="cls-3" d="M163.16,98.82c.2-.09.76.42.27,0a.48.48,0,0,0-.65,0c-.62.61-.3,1.33.38,1.68,1.76.94,1.82-2.56,0-1.65Z"/><path class="cls-3" d="M154.44,99.69c-.11-.14-.22-.29-.35-.44a.69.69,0,0,0-1,0c-.11.15-.22.3-.34.44-.46.6.17,1.44.83,1.44s1.28-.84.82-1.44Z"/><path class="cls-3" d="M219.22,30.54c0-.73.29-1.21-.18-1.89a.63.63,0,0,0-1-.13,2.85,2.85,0,0,0-1.29,1.69,1.24,1.24,0,1,0,2.45.33Z"/><path class="cls-3" d="M213.23,23.69c0-.93.49-1.48,0-2.41a.59.59,0,0,0-1,0,6.35,6.35,0,0,0-1,2.12,1.05,1.05,0,1,0,2.08.29Z"/><path class="cls-3" d="M203.74,15.39l-.44-.32c-.77-.55-1.89.56-1.33,1.33.11.15.22.29.32.44a1,1,0,1,0,1.45-1.45Z"/><path class="cls-3" d="M196,11.41c-.67-.6-1.31-1.4-2.25-1.47a.55.55,0,0,0-.56.56c.06.95.87,1.57,1.46,2.26.81.93,2.29-.55,1.35-1.35Z"/><path class="cls-3" d="M183.46,10.2c-.5-.51-.44-1.14-.53-1.81a.3.3,0,0,0-.6,0,3,3,0,0,0,.52,2.42c.34.42,1-.21.61-.61Z"/><path class="cls-3" d="M175.84,9.38a3.12,3.12,0,0,1-.49-2,.11.11,0,0,0-.21,0,3.34,3.34,0,0,0,.56,2.18c.08.09.22,0,.14-.14Z"/><path class="cls-3" d="M180.63,5.34l.54-.52c.15-.15-.09-.39-.24-.24s-.35.36-.53.53a.16.16,0,0,0,.23.23Z"/><path class="cls-3" d="M184.74,4.33h.53a.16.16,0,0,0,0-.32h-.53a.16.16,0,1,0,0,.32Z"/><path class="cls-3" d="M190.33,7.18a4,4,0,0,0,2.85.45.3.3,0,0,0,0-.59c-.77-.09-1.71,0-2.33-.54a.43.43,0,1,0-.52.68Z"/><path class="cls-3" d="M252.07,31.41c.34.33.43.36.23.07a1.77,1.77,0,0,0-.56-.53,1,1,0,0,0-1.27.17,1.63,1.63,0,0,0,.92,2.77c1.6.23,2.34-2.09.68-2.48Z"/><path class="cls-3" d="M248.33,37.56a1.81,1.81,0,0,0-2.08-1.48.82.82,0,0,0-.59.58,2,2,0,0,0,0,.73c.12.54.17-.4,0,.17-.63,2.27,3.34,2.2,2.68,0Z"/><path class="cls-3" d="M239.6,32c.35.26.43.25.26,0a.91.91,0,0,0-.55-.41.89.89,0,0,0-.88.23,1.67,1.67,0,0,0,.55,2.49c2,1,2.46-2.46.62-2.27Z"/><path class="cls-3" d="M236.56,28.29a5.94,5.94,0,0,0,.32-.79.46.46,0,0,0-.57-.56,4.74,4.74,0,0,0-.78.32c-1.2.5.53,2.22,1,1Z"/><path class="cls-3" d="M236.44,37.27a.92.92,0,0,0,0-1.84.92.92,0,0,0,0,1.84Z"/><path class="cls-3" d="M230.81,46c.58-.57,1.33-1,1-1.93a.67.67,0,0,0-1.11-.29,6.53,6.53,0,0,1-1.08.67c-1.16.88.18,2.54,1.2,1.55Z"/><path class="cls-3" d="M282.33,74.6c3.74,0,3.74-5.81,0-5.81s-3.75,5.81,0,5.81Z"/><path class="cls-3" d="M291.59,69.05a2.86,2.86,0,0,0,.38,1.59,1.68,1.68,0,0,0,2.87,0,2.7,2.7,0,0,0,.38-1.59,1.82,1.82,0,0,0-3.63,0Z"/><path class="cls-3" d="M293.2,81.39a3.32,3.32,0,0,0,.47.37,1.52,1.52,0,0,0,1.59,0,2.76,2.76,0,0,0,.46-.37,1.78,1.78,0,1,0-2.52,0Z"/><path class="cls-3" d="M285.41,86.9c-.3.25-.21.21.26-.1h.83l.71.41a1.61,1.61,0,0,0-2.68,1.63,1.67,1.67,0,0,0,2,1.14,2.07,2.07,0,0,0,1.14-.79,1.61,1.61,0,0,0-2.28-2.28Z"/><path class="cls-3" d="M272.56,88.21c0-.08,0-.16-.07-.25a1.3,1.3,0,0,0-.9-.9,1.56,1.56,0,0,0-.68,0,1.31,1.31,0,0,0-.9.9l-.06.25c-.58,2.18,3.17,2.18,2.61,0Z"/><path class="cls-3" d="M262.29,91.64a1.49,1.49,0,0,0,0-3,1.49,1.49,0,0,0,0,3Z"/><path class="cls-3" d="M252.26,97.9a1.42,1.42,0,0,0,0-2.84,1.42,1.42,0,0,0,0,2.84Z"/><path class="cls-3" d="M241.77,99.91c-.11.06-.23.11-.34.18a.73.73,0,0,0,0,1.23l.34.18c1.73.9,1.73-2.49,0-1.59Z"/><path class="cls-3" d="M231.16,100a5.38,5.38,0,0,0-2,.44,1.59,1.59,0,0,0,0,2.73,5.2,5.2,0,0,0,2,.45c2.33.12,2.33-3.74,0-3.62Z"/><path class="cls-3" d="M211.85,101.14c.53.34.69.39.47.16a1,1,0,0,0-1.51.2c-.46,1,.1,1.68,1,1.93,1.89.5,2-2.76,0-2.29Z"/><path class="cls-3" d="M201.62,104l.56.18c.22.39.45.8.68,1.19-.06.7-.18.59,0,.2a3.84,3.84,0,0,0,.46-.93,1.14,1.14,0,0,0-.34-1.4c-.77-.46-2.33.8-2.73,1.43a1.38,1.38,0,0,0,0,1.4,1.6,1.6,0,0,0,1,.72c2,.76,2.44-3,.37-2.79Z"/><path class="cls-3" d="M253.84,81c.14.12.4.6.33.31.26,1,.09-.13,0-.34-.17-.63-.87-.82-1.45-.83-2.07,0-2.66,2.13-1.76,3.71a2.1,2.1,0,0,0,3.26.42,2.13,2.13,0,0,0-.42-3.27Z"/><path class="cls-3" d="M256.35,72.74a5.77,5.77,0,0,1,.11-1c-.07.26-.15.52-.22.78a3.34,3.34,0,0,0,.37-1.31A1.18,1.18,0,0,0,255.42,70a3.23,3.23,0,0,0-2.76,1.77,2,2,0,0,0,1.19,2.9,2,2,0,0,0,2.5-1.91Z"/><path class="cls-3" d="M261.55,62.33l-.19-.09c.21.2.41.41.62.63a2.36,2.36,0,0,0-1.25-1l.73.42a1.56,1.56,0,0,0-2.36.07,1.77,1.77,0,0,0,.36,2.78,2.34,2.34,0,0,0,1.24.32c1.53-.08,2.48-2.41.85-3.14Z"/><path class="cls-3" d="M259.12,53.66q-.64,0,.21.21c.11.13,0,0-.23-.3a5.86,5.86,0,0,0-.82-.59,1.22,1.22,0,0,0-1.78.72c-.35,1.88.72,3.09,2.62,3.32,2.11.25,2.21-3.41,0-3.36Z"/><path class="cls-3" d="M253.84,46.57c.42.36.5.34.24-.08-.06-.15-.13-.3-.19-.44a3.63,3.63,0,0,0-.63-.67.67.67,0,0,0-.94,0,2.27,2.27,0,0,0,1.52,4c1.78.17,1.77-2.6,0-2.77Z"/><path class="cls-3" d="M254.51,40l-.21-.13c-1.62-1-3.1,1.54-1.49,2.54a2.63,2.63,0,0,0,3.2-.57,1,1,0,0,0,0-1.41,2.62,2.62,0,0,0-3.2-.56c-1.61,1-.13,3.54,1.49,2.54l.21-.14a1.33,1.33,0,0,0,0-2.27Z"/><path class="cls-3" d="M270.38,53.42c-.08-.12,0-.1.1,0a1.76,1.76,0,0,0,.74.39,1.25,1.25,0,0,0,1.21-2.08,2.49,2.49,0,0,0-1.37-.84c-1.61-.29-2.31,2.19-.68,2.48Z"/><path class="cls-3" d="M277.58,58.44a2.78,2.78,0,0,0,2.29-1.1.8.8,0,0,0,0-.84,2.81,2.81,0,0,0-2.29-1.1c-2-.26-2,3.3,0,3Z"/><path class="cls-3" d="M284.81,60.72a2.24,2.24,0,0,0,2.55.31,1.1,1.1,0,0,0,.23-1.72c-.36-.29-.82-.41-1.14-.71-1.39-1.34-3.23.95-1.64,2.12Z"/><path class="cls-3" d="M288.66,67.9a5.93,5.93,0,0,0,3.11-.57,1.68,1.68,0,0,0,0-2.87,5.74,5.74,0,0,0-3.11-.58c-2.59-.1-2.59,4.12,0,4Z"/><path class="cls-3" d="M279.7,124.7a1.85,1.85,0,0,0,0-3.69,1.85,1.85,0,0,0,0,3.69Z"/><path class="cls-3" d="M269.74,124.47l-.45-.29a1.08,1.08,0,0,0-1.47,1.46l.3.46c1,1.63,3.26-.58,1.62-1.63Z"/><path class="cls-3" d="M259.72,123.32a2.05,2.05,0,0,1-.34.07h.85c.64.4.71.43.22.07a3,3,0,0,0-.41-.17,1.46,1.46,0,0,0-1.17.17,1.62,1.62,0,0,0-.71,1.77,2,2,0,0,0,1.56,1.39,1.71,1.71,0,1,0,0-3.3Z"/><path class="cls-3" d="M256.09,127.61c.11-.27.1-.26,0,0a2.13,2.13,0,0,0-.25,1,1.6,1.6,0,0,0,.85,1.36c1.39,1,2.9-.71,3.31-1.85,1-2.68-4-3.51-3.87-.52Z"/><path class="cls-3" d="M189.18,145.36a3.08,3.08,0,0,0-1.09-3.21,1.1,1.1,0,0,0-1.65.95,10,10,0,0,0,.19,2.26,1.33,1.33,0,0,0,2.55,0Z"/><path class="cls-3" d="M168.1,150.58a2.85,2.85,0,0,1-.22-1.13,2,2,0,0,0-.58-1.23.69.69,0,0,0-1,0c-1,1-.6,2.9.24,3.89s2.38-.45,1.54-1.53Z"/><path class="cls-3" d="M96.27,140.07c.12-.39.31-.78.43-1.18a8.68,8.68,0,0,0,.11-1.26c0-.47-.48-.75-.88-.67a2.58,2.58,0,0,0-2.12,2.78,1.26,1.26,0,0,0,2.46.33Z"/><path class="cls-3" d="M107.35,140.81c1-.2,1-.88,0-1.08a.55.55,0,1,0,0,1.08Z"/><path class="cls-3" d="M130.93,116c3.41,0,3.41-5.28,0-5.28s-3.39,5.28,0,5.28Z"/><path class="cls-3" d="M207.28,135l.2-.12a1.7,1.7,0,0,0,0-2.9l-.2-.12a1.82,1.82,0,1,0,0,3.14Z"/><path class="cls-3" d="M216.68,128.13a1.18,1.18,0,0,0,.79-.41.93.93,0,0,0,0-1.28,1.18,1.18,0,0,0-.79-.41,1.08,1.08,0,1,0,0,2.1Z"/><path class="cls-3" d="M237.56,121.55c.09.59.2,1.41,1,1.41s.89-.82,1-1.41a1,1,0,1,0-2,0Z"/><path class="cls-3" d="M258.56,129.19c0,1.19,0,3,1.49,3.32a1.43,1.43,0,0,0,1.72-1,9.13,9.13,0,0,0,0-2.34c.06-2.09-3.32-2.09-3.24,0Z"/><path class="cls-3" d="M273.26,128.64a2.29,2.29,0,0,0,1.95-2.09.79.79,0,0,0-.58-.76c-.46-.07-.91-.16-1.37-.27-2.63-.6-2.57,3.76,0,3.12Z"/><path class="cls-3" d="M284.43,122.83a1.55,1.55,0,0,0,0-3.1,1.55,1.55,0,0,0,0,3.1Z"/><path class="cls-3" d="M300.26,118.94c3.1,0,3.1-4.82,0-4.82s-3.1,4.82,0,4.82Z"/><path class="cls-3" d="M295.81,131.43a4.84,4.84,0,0,0,1.78,0c2.72-.49,2.72-5,0-5.5a5.07,5.07,0,0,0-1.78,0c-2.75.41-2.75,5.14,0,5.54Z"/><path class="cls-3" d="M298.68,118.37a3.43,3.43,0,1,0-3.42-3.43,3.45,3.45,0,0,0,3.42,3.43Z"/><path class="cls-3" d="M300.26,108.85c3,0,3-4.68,0-4.68s-3,4.68,0,4.68Z"/><path class="cls-3" d="M284.63,104.43l.08.06a3.2,3.2,0,0,0,4.46,0,2.86,2.86,0,0,0,.73-1,3,3,0,0,0,0-3,2.94,2.94,0,0,0-3.3-1.35l-.2.07c.82-.15.71-.14-.29,0a3.57,3.57,0,0,0-1.95,1.53,3,3,0,0,0,.47,3.67Z"/><path class="cls-3" d="M280,102a.41.41,0,0,1-.11-.07,1.39,1.39,0,0,0-1.37,0l-.12.07a1.58,1.58,0,1,0,1.6,0Z"/><path class="cls-3" d="M270.31,104l-.42.08a1.47,1.47,0,0,0,0,2.82l.42.08c2.5.53,2.5-3.51,0-3Z"/><path class="cls-3" d="M260.7,111.17l-.54-.74a.61.61,0,0,0-1,0c-.18.25-.36.49-.53.74a1.22,1.22,0,1,0,2.1,0Z"/><path class="cls-3" d="M251,114.71c.51-.53,1.15-.75,1.5-1.44a.86.86,0,0,0-1-1.26,7,7,0,0,0-1.95.89c-1.38,1,.26,3,1.41,1.81Z"/><path class="cls-3" d="M293.52,102.41a1.39,1.39,0,0,0,.21-.21,2.18,2.18,0,0,0-.43-3.37l.22.17a2.41,2.41,0,1,0,0,3.41Z"/><path class="cls-3" d="M296,101.36c2.89,0,2.89-4.48,0-4.48s-2.89,4.48,0,4.48Z"/><path class="cls-3" d="M300.26,100.18a3.38,3.38,0,0,0,.75,2,1.92,1.92,0,0,0,2.73,0,3.36,3.36,0,0,0,.74-2c.32-2.72-4.53-2.72-4.22,0Z"/><path class="cls-3" d="M296.68,95.34a1.57,1.57,0,0,0-.1-.28,2.21,2.21,0,0,0-4.23,0l-.12.28a2.31,2.31,0,1,0,4.45,0Z"/><path class="cls-3" d="M291.79,91.58a.31.31,0,0,1-.1,0l1,1.77v0c-.33.59-.67,1.18-1,1.78a3,3,0,0,0,1.38-1.75,1.94,1.94,0,0,0-1.85-2.42c-1.61-.12-3.52,1.91-2.32,3.47a2.18,2.18,0,0,0,2.31.94h.11c1.72-.25,2-3,.49-3.68Z"/><path class="cls-3" d="M296,90.15c2.72,0,2.72-4.22,0-4.22s-2.72,4.22,0,4.22Z"/><path class="cls-3" d="M300,82.43a.47.47,0,0,0-.06.09,1.87,1.87,0,0,0-1.28,2.25,1.84,1.84,0,0,0,2.69,1.09l.11-.06a1.72,1.72,0,0,0,.77-1.9.88.88,0,0,0,.05.15c-.08.28-.16.56-.23.84l.16-.25A1.62,1.62,0,0,0,300,82.43Z"/><path class="cls-3" d="M299.41,92.26a4,4,0,0,0,.39,1.15,2.16,2.16,0,0,0,1.88,1.09h.08a2.18,2.18,0,0,0,2.11-1.62,2.94,2.94,0,0,0,.09-.83A2.22,2.22,0,0,0,302.39,90a2.13,2.13,0,0,0-2.4,1l.21-.23,1-.57-.07,0h1.17l-.1,0,.95.56a2.78,2.78,0,0,1-.41-.36,2,2,0,0,0-3.3,1.92Z"/><path class="cls-3" d="M295.52,98.39a3.37,3.37,0,0,0,2.41-1.09,1.77,1.77,0,0,0,.43-1.67c0,.54,0,.62.09.26a1.1,1.1,0,0,0,0-.57.91.91,0,0,0-.41-.6,2.52,2.52,0,0,0-.33-.14c-.45-.1-.39,0,.22.29a1.79,1.79,0,0,0-1.49-.48l-.76.09c-.29.06-.33.09-.16.09a2,2,0,0,0-1.92,1.92,1.91,1.91,0,0,0,1.92,1.9Z"/><path class="cls-3" d="M296.5,102.36a1.9,1.9,0,0,0,1.23-.71,1.38,1.38,0,0,0,0-1.89,1.9,1.9,0,0,0-1.23-.71,1.7,1.7,0,1,0,0,3.31Z"/><path class="cls-3" d="M295.93,105.43a4.09,4.09,0,0,0-1-1.66,1.47,1.47,0,0,0-2.06,0,4.09,4.09,0,0,0-1,1.66,2.08,2.08,0,1,0,4,0Z"/><path class="cls-3" d="M285.14,104.05a3.32,3.32,0,0,0,.54-3.76.83.83,0,0,0-.93-.38c-1.05.28-1.41,1-2.08,1.67-1.6,1.64,1.08,4.19,2.47,2.47Z"/><path class="cls-3" d="M281.32,96.32a2.7,2.7,0,0,0-1.48.84l.81-.48-.19,0a1.9,1.9,0,1,0,1.86,3.18c.28-.32.39-.17,0-.08a1.84,1.84,0,0,0,1.27-2.24,1.86,1.86,0,0,0-2.23-1.26Z"/><path class="cls-3" d="M273.89,101.4a3.25,3.25,0,0,0-1.22.29,1.84,1.84,0,0,0-.57.4c-.17.15-.18.15-.06,0-2.32,1.17-.12,4.94,2,3.47.19-.13.37-.27.55-.42s.16-.19-.23.08c2.1-.52,1.7-4.06-.51-3.82Z"/><path class="cls-3" d="M261.8,107.93h.1l2,.52a.36.36,0,0,0-.08-.09c.17.31.35.6.52.9a1,1,0,0,0,0-.17c-.48-2.64-4.95-1.43-4,1.11a2.28,2.28,0,0,0,3.93.9c1.62-1.57-.52-4.45-2.43-3.16Z"/><path class="cls-3" d="M253.71,117.58a8.86,8.86,0,0,1,.23-2.11,1.13,1.13,0,0,0-1.15-1.14,3.32,3.32,0,0,0-3,2.73c-.72,3,4.2,3.22,3.88.52Z"/><path class="cls-3" d="M275.47,92.13a2,2,0,0,0,0-3.95,2,2,0,0,0,0,3.95Z"/><path class="cls-3" d="M283.38,83.83a11.54,11.54,0,0,0,0-2.2,1.83,1.83,0,0,0-.46-.8c-.42-.29-.5-.36-.26-.22a1.29,1.29,0,0,0-.87-.38c-.26,0-1.37.16-.14.08a2.12,2.12,0,0,0-1.46.7,4.34,4.34,0,0,0-1,2.82c-.29,2.66,4.21,2.76,4.21,0Z"/><path class="cls-3" d="M287.08,78.22a3,3,0,0,0,2.82-1.35,1.82,1.82,0,0,0,0-1.91,3,3,0,0,0-2.82-1.36,2.31,2.31,0,0,0,0,4.62Z"/><path class="cls-3" d="M296.57,85.87c1.48-.12,2.57-.28,3.38-1.61a.85.85,0,0,0,0-.87c-.81-1.33-1.9-1.5-3.38-1.61-2.64-.2-2.64,4.29,0,4.09Z"/><path class="cls-3" d="M299.63,89.74a3.12,3.12,0,0,0,2.13,1.13,2.77,2.77,0,0,0,2.38-1.08,1.51,1.51,0,0,0-.67-2.51,20,20,0,0,0-2.49-.22l.85.23-.21-.14c-1.56-1.06-3.34,1.31-2,2.59Z"/><path class="cls-3" d="M299.87,96a3.22,3.22,0,0,0,3.37,3.21,2.19,2.19,0,0,0,1.1-4.06,3.8,3.8,0,0,0-.94-.49c-.82-.26-.15-.24.16.34-1-1.86-3.55-.85-3.69,1Z"/><path class="cls-3" d="M299.22,97.8c-1.67.32-4.16.73-5,2.45a.89.89,0,0,0,.32,1.22c1.5.89,3.57.25,5.2.09a1.91,1.91,0,1,0-.52-3.76Z"/><path class="cls-3" d="M298.51,100.7a2.67,2.67,0,0,0,1.33,2.55,2.42,2.42,0,0,0,3.62-2.08,2.67,2.67,0,0,0-1.52-2.43,2.31,2.31,0,0,0-3.43,2Z"/><path class="cls-3" d="M295.65,95.94c.33-.79-.1.21-.17.39a2.86,2.86,0,0,0-.39,1.91c-.07-.34-.06.32-.06.46a1.29,1.29,0,0,0,.63,1.16,1.24,1.24,0,0,0,1.44-.19,1.56,1.56,0,0,0,.43-1.08,1,1,0,0,0-1-1c-.34,0-1-.11,0,.06.28.27.56.55.83.83v0c0,.31-.09.61-.12.92s-.17.18,0,.08c-.16,0-.15,0,0,0a2.15,2.15,0,0,0,.92-.59,7.34,7.34,0,0,0,.87-1,2,2,0,1,0-3.42-2Z"/><path class="cls-3" d="M304.68,83.83v-.4A2.37,2.37,0,0,0,303,81.21a1.55,1.55,0,0,0-1.23,0,2.36,2.36,0,0,0-1.69,2.22v.4c0,3,4.61,3,4.61,0Z"/><path class="cls-3" d="M299.8,74.74h0c.48.21,1,.41,1.47.61l-.1-.07a2,2,0,0,0-2.78,0,2.44,2.44,0,0,0-.71,1.63,2.19,2.19,0,0,0,2.16,2.17c2.8,0,2.78-4.26,0-4.33Z"/><path class="cls-3" d="M296.65,74.81a3.75,3.75,0,0,0,1.57-.39c.6-.32.7-1.14.79-1.4a2.46,2.46,0,0,0-3.59-2.75c-2,1.17-1.26,4.71,1.23,4.54Z"/><path class="cls-1" d="M233.28,98.21h.22a3.69,3.69,0,1,0-1-7.24l-.22.05c-4,1-3.17,7.28,1,7.2Z"/><path class="cls-1" d="M239.63,89.37a4.59,4.59,0,0,0,2.13,2.88,4.32,4.32,0,1,0,3.37-7.89c.57.44,1.12.87,1.68,1.29-.05-.08-.11-.15-.17-.23a2.58,2.58,0,0,0-3.46-.91l-.21.14,1.42-.38a4.18,4.18,0,0,0-2.58.68l2.11-.57h0l3.64,2.09a0,0,0,0,0,0,0c.2.71.38,1.43.57,2.14-.18,1-.2,1.26-.07.79a4.39,4.39,0,0,0-4.2-5.51c-2.65,0-5.19,2.82-4.19,5.51Z"/><path class="cls-1" d="M246.32,86.81c0,.11,0,.23,0,.34l.92-2.24-.1.12a3.32,3.32,0,1,0,5.55,3.22,5.23,5.23,0,0,0,.14-1.19,3.34,3.34,0,0,0-6.68,0,4.73,4.73,0,0,0,.14,1.19A3.32,3.32,0,1,0,251.8,85l-.1-.12c.3.74.62,1.49.92,2.24,0-.11,0-.23,0-.34a3.13,3.13,0,0,0-6.26,0Z"/><path class="cls-1" d="M256.54,99.38a4,4,0,0,0-1.68-2.77l1,1.31c.07.39-.1-.67-.15-.93a1.42,1.42,0,0,0-1.34-1,2.69,2.69,0,0,0-2.5,1.43l1.31-1a3.62,3.62,0,0,0-2.37,3,3,3,0,1,0,5.73,0Z"/><path class="cls-1" d="M259.57,88.16l-.33-.21c.42.53.82,1.07,1.23,1.6-.46-1.22-.73-2.49-1.89-3.23a1.34,1.34,0,0,0-1.39,0c-1.15.74-1.43,2-1.88,3.23l1.23-1.6-.33.21a3.33,3.33,0,1,0,3.36,0Z"/><path class="cls-1" d="M261.68,73.49a5,5,0,0,0-1-1.9c.17.3.35.59.52.88a8.88,8.88,0,0,0-.58-1.2,5.48,5.48,0,0,0-.53-1.12,1,1,0,0,0-1.65,0A4.07,4.07,0,0,0,258,71a10.2,10.2,0,0,0-.67,1.46l.5-.88a5.25,5.25,0,0,0-1,1.9,2.47,2.47,0,1,0,4.77,0Z"/><path class="cls-1" d="M257.79,63c-1-.78-1.9-2.17-3.16-2.46a1,1,0,0,0-1.21.69c-.63,1.58.85,3.21,1.75,4.38,1.48,1.89,4.51-1.14,2.62-2.61Z"/><path class="cls-1" d="M247.14,53.34a7.68,7.68,0,0,0-2.72-2.72,1.18,1.18,0,0,0-1.44.18,2.83,2.83,0,0,0-.77,2.25,4.15,4.15,0,0,0,1.91,3.31c1.9,1.28,4.06-1.18,3-3Z"/><path class="cls-1" d="M238,46.72a1.71,1.71,0,0,1-.28-.65,7.36,7.36,0,0,0-.72-1.29,4.13,4.13,0,0,0-1.89-1.59.86.86,0,0,0-1.22.49,4.29,4.29,0,0,0,.25,2.76,5.15,5.15,0,0,0,1.68,2c1.12,1,3.16-.32,2.18-1.68Z"/><path class="cls-1" d="M226.23,38.17c-.42-.68-.49-1.46-1.07-2.06a1.45,1.45,0,0,0-2.06,0,2.73,2.73,0,0,0,.6,4c1.35,1.08,3.54-.27,2.53-1.95Z"/><path class="cls-1" d="M218,28.2c-.55-.65-.11-1.8-.5-2.55s-1-1.1-1.72-.67c-1.59.93-.56,4,.35,5.09,1.13,1.29,2.94-.58,1.87-1.87Z"/><path class="cls-1" d="M208.52,23.86c-.2-.49-.12-.49-.06-1a3.23,3.23,0,0,0-.39-2,1.78,1.78,0,0,0-3,0,3.32,3.32,0,0,0,1.56,4.51c.92.45,2.41-.31,1.94-1.49Z"/><path class="cls-1" d="M198.81,20.24H199c1.22-.08,1.22-2,0-1.89-.26,0-.51,0-.78.05a.9.9,0,0,0,0,1.79l.78.05c1.22.08,1.22-1.81,0-1.89h-.19c-1.23-.08-1.23,2,0,1.91Z"/><path class="cls-1" d="M189.34,15.14c0-.11.06-.07,0,.11s-.3.51-.45.78a.34.34,0,0,1,.08-.09l-.79.46a3.5,3.5,0,0,0,.93-.51c-.24.17,0,.08.12,0a2.31,2.31,0,0,0,1.34-1,1.1,1.1,0,0,0,0-1.11,3,3,0,0,0-3.69-.83,2.08,2.08,0,0,0-.93,2.27,2.37,2.37,0,0,0,.32.66,1.55,1.55,0,0,0,.6.59.47.47,0,0,0,.46.16c1,.81,2.84-.25,2-1.52Z"/><path class="cls-1" d="M271.69,59.2c-.37-.11-.31,0,.2.24.15.26.31.52.46.79l0,.26c-.08.3-.17.61-.25.92a.54.54,0,0,0,.07-.13,1.91,1.91,0,1,0-3.29,0,2.34,2.34,0,0,0,2.78,1.09,1.65,1.65,0,0,0,0-3.17Z"/><path class="cls-1" d="M280.57,71.16a2.77,2.77,0,0,0,3.31-1.47,1.87,1.87,0,0,0-2.54-2.54c.1-.06.57-.08.18,0s-.62.1-.95.17c-1.91.4-1.94,3.49,0,3.87Z"/><path class="cls-1" d="M287.55,86.3c.59-.78,1.13-1.38.92-2.43a1.23,1.23,0,0,0-.92-.92c-1.05-.2-1.64.33-2.42.91a1.76,1.76,0,1,0,2.42,2.44Z"/><path class="cls-1" d="M285.68,103.4a4.16,4.16,0,0,0,1.89-4.76,1.8,1.8,0,0,0-2.6-1.06A4.42,4.42,0,0,0,283.41,99a3.58,3.58,0,0,0-.46,1c0,.14-.06.28-.1.42.1-.2.07-.18-.06.07-1,1.77,1.06,4.11,2.89,2.89Z"/><path class="cls-1" d="M275.65,114.86c1-2,1.92-4.09.89-6.33a2.28,2.28,0,0,0-2.54-1c-2.83.64-4.18,4.24-3.17,6.74a2.74,2.74,0,0,0,1.83,1.85,2.66,2.66,0,0,0,3-1.22Z"/><path class="cls-1" d="M268.76,118.46a7.79,7.79,0,0,0-1.29-4.68,5.06,5.06,0,0,0-4.17-2.38c-1.94,0-4.33,1.45-4.65,3.52-.07.53-.14,1-.2,1.57.13-.87.15-1,.05-.54a11.23,11.23,0,0,0-.23,2.51,5.25,5.25,0,0,0,10.49,0Z"/><path class="cls-1" d="M233.84,116.22h.08l1.05-.28h-.12l1.48.61a.9.9,0,0,0,.14.2c-1-1.64-3.89-1.07-3.77,1a2.35,2.35,0,0,0,3.78,1.87,2.18,2.18,0,1,0-2.64-3.42Z"/><path class="cls-1" d="M213.64,122.7l-.25-.1.84.48a.2.2,0,0,1-.06-.09,1.51,1.51,0,0,0-2.58,0l-.07.09.85-.48a3.2,3.2,0,0,0-2.29,2.12,2.9,2.9,0,1,0,5.59,1.54,3,3,0,0,0-2-3.56Z"/><path class="cls-1" d="M203.6,128.32l-.17-.07,1.07,1.06c-.67-1.63-2.27-1.63-2.93,0,.35-.36.7-.71,1.06-1.06a2.37,2.37,0,0,0-1.7,1.59,2.17,2.17,0,1,0,2.67-1.52Z"/><path class="cls-1" d="M189,133.91c-.49-.39-.24-.12-.25-.15a1.63,1.63,0,0,0-.2-1,1.41,1.41,0,0,0-1.57-.64c-2,.53-2,2.75-1.15,4.2,1.61,2.65,5.33-.67,3.17-2.44Z"/><path class="cls-1" d="M172.78,126.67H173l1,.6c.25.31.17.21-.23-.3a3.24,3.24,0,0,0-.59-.44l.76.76a2.46,2.46,0,0,0-.55-.73,1.89,1.89,0,0,0-2.63,0,2.56,2.56,0,0,0-.8,2.63,3,3,0,0,0,2.18,2.09,2.34,2.34,0,1,0,.63-4.6Z"/><path class="cls-1" d="M160.13,124.84c.12,0-.22-.19-.31-.31a8.61,8.61,0,0,1-.65-1,5.24,5.24,0,0,0-2.15-2.22.82.82,0,0,0-1.23.71c0,2.24,1.88,5.42,4.34,5.57,1.76.1,1.7-2.53,0-2.71Z"/><path class="cls-1" d="M138.05,124.54c-.11-.17-.46-.61-.22-.79a.43.43,0,0,0-.1-.78.91.91,0,0,0-1.24.49c-.21.72.26,1.24.78,1.68s1.09-.1.78-.6Z"/><path class="cls-1" d="M234.78,132.7a5.46,5.46,0,0,0,.76-3,.87.87,0,0,0-1.09-.83c-1,.17-1.66,1.06-2.41,1.7-1.85,1.56,1.28,4.35,2.74,2.11Z"/><path class="cls-1" d="M246.46,138a2.83,2.83,0,0,0,2.47-2.56c-.08.28-.15.56-.22.84a2.67,2.67,0,0,0,.35-1.87,1,1,0,0,0-.73-.74,2.69,2.69,0,0,0-1.23,0,4.22,4.22,0,0,1-.62.1c.1,0-1.21.36-.55.31a2,2,0,1,0,.53,3.88Z"/><path class="cls-1" d="M272.39,126.38l.06-.22c-.22.37-.42.74-.64,1.11.42-.5,1.16-1.06,1.16-1.78s-.74-1.28-1.16-1.77c.22.36.42.74.64,1.1a3.49,3.49,0,0,0-2.41-2.57,3.36,3.36,0,1,0,2.35,4.13Z"/><path class="cls-1" d="M286,130.3a7.54,7.54,0,0,0,3.84-.75.64.64,0,0,0,0-1.08,7.43,7.43,0,0,0-3.84-.74c-1.65-.09-1.65,2.65,0,2.57Z"/><path class="cls-1" d="M297.28,136.26l1.1-.06a.86.86,0,0,0,0-1.72l-1.1-.07c-1.2-.06-1.2,1.92,0,1.85Z"/><path class="cls-1" d="M306.62,135.51c-.15-.37-.31-.75-.47-1.12a.5.5,0,0,0-.86,0c-.16.37-.32.75-.49,1.12-.85,2,2.68,2,1.82,0Z"/><path class="cls-1" d="M304.31,100a1.26,1.26,0,0,0,0-2.51,1.26,1.26,0,0,0,0,2.51Z"/><path class="cls-1" d="M306.42,92.4c2.68,0,2.68-4.16,0-4.16s-2.68,4.16,0,4.16Z"/><path class="cls-1" d="M288.85,92.51c.07-.38.13-.76.17-1.14-.1.93.13-.93.13-.78a3.84,3.84,0,0,0-.53-2.37,1.83,1.83,0,0,0-2.5-.36,6.46,6.46,0,0,0-1.48,1.51c-.17.24-.17.25,0,0,.37-.22.75-.43,1.12-.66l-.52.17a3,3,0,0,0-1.3,4.91c1.48,1.47,4.47.91,4.91-1.3Z"/><path class="cls-1" d="M276.51,84a5.26,5.26,0,0,1-.61-1.37,3.86,3.86,0,0,0-.66-1.06c-.17-.21-.24-.57-.41-.81a.9.9,0,0,0-1.53,0c-.31.44-.6,1-.88,1.41a17.74,17.74,0,0,1-.8,1.83c-1.29,1.8.45,4.27,2.45,4.27s3.73-2.47,2.44-4.27Z"/><path class="cls-1" d="M258.6,74.54l-.2-.11,1,1c-.31-.43-.07.43-.08-.24a6.77,6.77,0,0,0-.26-1.91A2.1,2.1,0,0,0,256,72a4,4,0,0,0-1.91,3.16,5.08,5.08,0,0,0,.09,1.6c0,.17.57,1.67.33.94a2.8,2.8,0,1,0,4.12-3.16Z"/><path class="cls-1" d="M246.94,76.41a6.86,6.86,0,0,0,.36-3.47c-.27-1.31-1.31-2.75-2.79-2.75a4.08,4.08,0,0,0-3.13,2,5.23,5.23,0,0,0-.67,4.25,3.25,3.25,0,0,0,3.11,2.38,3.29,3.29,0,0,0,3.12-2.38Z"/><path class="cls-1" d="M240.7,80.85c.13-.42.26-.84.41-1.25a5.71,5.71,0,0,1,.21-.58c-.44,1.15.2-.41.32-.8a4.07,4.07,0,0,0,0-2.08c-.1,1.3-.08,1.62,0,1a9.15,9.15,0,0,0,.3-1.8,2.85,2.85,0,0,0-3.55-2.71,5.13,5.13,0,0,0-1.66.73c-.14.09-.29.19-.42.29l.48-.2a4,4,0,0,0-1.73,1,15.34,15.34,0,0,0-2.22,4.29c-.79,2.07.85,4.44,2.83,5a4.1,4.1,0,0,0,5-2.83Z"/><path class="cls-1" d="M251.82,91.42a7.71,7.71,0,0,0,1.59-3.67c-.13.48-.26,1-.38,1.42.53-1,1.35-3,.24-4.07s-3-.29-4.07.24l1.4-.38A7.59,7.59,0,0,0,247,86.55a3.56,3.56,0,1,0,4.87,4.87Z"/><path class="cls-1" d="M261,94.15a2.05,2.05,0,0,0,.27-.25c.18-.22.34-.44.51-.66-.37.46-.28.35.27-.35a2.85,2.85,0,0,0,.4-1.63c-.27.67-.55,1.33-.83,2a3.87,3.87,0,0,0,.72-.87,7.17,7.17,0,0,0,.36-.81c-.13.25-.13.24,0,0a2.77,2.77,0,0,0,0-2.69,1.49,1.49,0,0,0-1.31-.74,7.28,7.28,0,0,0-1.62.32h1.28a5,5,0,0,0-2.18.09l2.18.29a3.23,3.23,0,0,0-2.61-.34h1.64a9.57,9.57,0,0,0-1.5-.17,3.43,3.43,0,0,0-.91,6.74,3.59,3.59,0,0,0,3.33-.89Z"/><path class="cls-1" d="M268.53,83.56c-.15.55-.09.43.19-.35a4.1,4.1,0,0,0,5.61,5.61,6,6,0,0,0,1.37-1.09,4.29,4.29,0,1,0-7.17-4.17Z"/><path class="cls-1" d="M274.77,69.12l.14.13c.26.47.54.93.81,1.4-.43-1.18-1.54-3-3.06-3s-2.63,1.86-3.06,3l.81-1.4.14-.13c-3.54,2.15-2.1,7.81,2.11,7.81s5.66-5.66,2.11-7.81Z"/><path class="cls-1" d="M254.6,56c.84.31.33.09.11-.07l-.72-.3c.35.15.43.17.25.07.3.41.62.81.93,1.22a2.61,2.61,0,0,0-.55-1.18c.22.28.22.26,0-.07a1.39,1.39,0,0,0-.56-.33,2.15,2.15,0,0,0-2.27.69l.91-.54c-2.26.43-2.77,3-2.39,4.85.53,2.66,4.11,3.33,5.89,1.55,2-2,.87-5-1.56-5.89Z"/><path class="cls-1" d="M244.51,50.17c-.06-.26-.06-.18,0,.23,0-.25,0-.51-.05-.77,0-.42.08-1.25.1-1.68.05-1,0-3-1.45-3s-1.77,1.28-2.51,2.09a9.22,9.22,0,0,0-.94,1.59,8.42,8.42,0,0,0-.76,1.57c-.66,1.8,1.05,3.67,2.8,3.67a2.93,2.93,0,0,0,2.8-3.67Z"/><path class="cls-1" d="M238.65,43.9c0-1.57,1-2.66,1.55-4,.23-.58-.48-.89-.91-.71a5.65,5.65,0,0,0-2.95,4.76c-.12,1.47,2.33,1.51,2.31,0Z"/><path class="cls-1" d="M245.2,31.92a3,3,0,0,0,.26-.24,2.43,2.43,0,0,0,0-3.35l-.06-.06c-1.48-1.75-4.83.11-3.94,2.28a3,3,0,0,0,.65,1.13c-.14-.13,1,.78.34.24a2,2,0,0,0,2.75,0Z"/><path class="cls-1" d="M230.17,34a4.12,4.12,0,0,0-1.48-.17,1.67,1.67,0,0,0,0,3.33,3.91,3.91,0,0,0,1.48-.17,1.56,1.56,0,0,0,0-3Z"/><path class="cls-1" d="M222.36,38.45a7.29,7.29,0,0,1-1.33-.27,1.56,1.56,0,0,0-1.52.41c-.07,0-.12.1-.19.15a1.32,1.32,0,0,0,0,1.89l.19.16a1.58,1.58,0,0,0,1.52.4,6.54,6.54,0,0,1,1.33-.27,1.29,1.29,0,0,0,0-2.47Z"/><path class="cls-1" d="M217.06,45a5.29,5.29,0,0,1,1.35-2.43,9.2,9.2,0,0,0,1.2-1.37c.31-.4.83-.55,1.13-1a1,1,0,0,0-.35-1.31c-.75-.4-1.48-.16-2.27-.26a3.61,3.61,0,0,0-2.73,1.24A5.39,5.39,0,0,0,214.33,45a1.43,1.43,0,0,0,2.73,0Z"/><path class="cls-1" d="M222.18,61.56c1.89-1,1.76-3.5.56-5a1,1,0,0,0-1.44,0l-.29.36a1.34,1.34,0,0,0-.37.63c-.15.23-.15.28,0,.16a6.79,6.79,0,0,0-1,1.94c-.54,1.48,1.3,2.61,2.52,1.93Z"/><path class="cls-1" d="M232.61,46a5.2,5.2,0,0,0-1.4-3.56,1.09,1.09,0,0,0-1.5,0,5.2,5.2,0,0,0-1.4,3.56c-.11,2.77,4.42,2.77,4.3,0Z"/><path class="cls-1" d="M229.79,39a3.94,3.94,0,0,0,1.05-3.85,1.18,1.18,0,0,0-1.09-.83c-1.32-.14-2.53,1.2-3.17,2.21A2.06,2.06,0,0,0,226.9,39a2.09,2.09,0,0,0,2.89,0Z"/><path class="cls-1" d="M231.19,35.62A4.87,4.87,0,0,0,235.38,38a4.61,4.61,0,1,0,0-9.22,4.9,4.9,0,0,0-4.19,2.35,4.39,4.39,0,0,0,0,4.53Z"/><path class="cls-1" d="M241.71,41.74a5.57,5.57,0,1,0-5.57-5.58,5.63,5.63,0,0,0,5.57,5.58Z"/><path class="cls-1" d="M243.82,44.29c4.12,0,4.12-6.4,0-6.4s-4.12,6.4,0,6.4Z"/><path class="cls-1" d="M245,79.8a.15.15,0,0,0,0-.07c-.56.43-1.11.87-1.68,1.3h.07l-2.16-.28a3.59,3.59,0,0,0,1.1.38,2.54,2.54,0,0,0,3-1.71c.9-2.38-2-5.08-4.24-3.49A2.84,2.84,0,1,0,245,79.8Z"/><path class="cls-1" d="M244.53,104.27a2.68,2.68,0,0,0,2-.94,1.16,1.16,0,0,0-1.64-1.63c-.18.09-.16.11.06,0l-.41,0c-1.67-.15-1.65,2.74,0,2.57Z"/><path class="cls-1" d="M229.11,118.76a4.53,4.53,0,0,0-.93-2.25.77.77,0,0,0-1.07,0,4.53,4.53,0,0,0-.93,2.25,1.5,1.5,0,1,0,2.93,0Z"/><path class="cls-1" d="M215.26,123.62c-.54-1.46-2.07-2.74-3.66-1.91a1.13,1.13,0,0,0-.22,1.76c.33.29.49.26.46.61-.3,2.55,4.35,2,3.42-.46Z"/><path class="cls-1" d="M198.1,120.84c.16.07.11.06-.14,0-.64-.14.36.29-.14,0l-.34-.15a4.39,4.39,0,0,0-.83-.31,1.89,1.89,0,0,0-2.35,1.79,3.65,3.65,0,0,0,3.8,3.77,2.54,2.54,0,0,0,2.54-2.54,2.57,2.57,0,0,0-2.54-2.54Z"/><path class="cls-1" d="M185.4,128.51a45,45,0,0,1,2.68-3.82,25.65,25.65,0,0,0,2.9-4.06,1.54,1.54,0,0,0-1.72-2.23c-3.55.79-6.57,3.55-8.89,6.24a3.2,3.2,0,1,0,5,3.87Z"/><path class="cls-1" d="M219.92,131.74a6.55,6.55,0,0,0,3.51-.48,7.2,7.2,0,0,0,2.45-2.17l-.66.67a6,6,0,0,0,1.51-1.46,1.4,1.4,0,0,0-1.2-2.08,8.37,8.37,0,0,1-2.06-.07c-1.2-.41-2.36,0-3.55.12a2.74,2.74,0,1,0,0,5.47Z"/><path class="cls-1" d="M238.81,127.31c.29,1.34,1.6,2.19,2.76,1.14a2.24,2.24,0,0,0,0-2.79.77.77,0,0,0-1.07,0c-.12.12-.21.25-.33.39.25-.1.2-.07-.18.08-.62.41-.33.39.83,0l1,1c0,.2,0,.14,0-.19.25-2.09-3.58-2-3.05.41Z"/><path class="cls-1" d="M248.85,127.71a4,4,0,0,0,2.77.39A2.48,2.48,0,0,0,253,127c-.25.34.44-.75.49-.91a2,2,0,0,0-.74-2.21,2.43,2.43,0,0,0-1.94,0h1.07l.09,0c.48.53.59.61.36.24a2.6,2.6,0,0,0-4-.53c-1.06,1.06-1,3.38.52,4Z"/><path class="cls-1" d="M262.38,102.72a10.66,10.66,0,0,0-1.41-1,1.85,1.85,0,0,0-2,0,10.57,10.57,0,0,0-1.4,1,3.36,3.36,0,1,0,4.76,0Z"/><path class="cls-1" d="M267,95c.09.36.19.71.29,1.07a2.88,2.88,0,0,0-3.61-2.75,3.93,3.93,0,0,0-1.76,1A3.23,3.23,0,1,0,267,95Z"/><path class="cls-1" d="M273.36,101.78c5.7,0,5.7-8.84,0-8.84s-5.69,8.84,0,8.84Z"/><path class="cls-1" d="M270.77,113.51a1.74,1.74,0,0,1,.4-.23c-.48.19-.54.23-.18.13a4.33,4.33,0,0,0,1.45-.7c1.44-1.11,2.71-2.8,1.61-4.66-1.53-2.62-5.62-1.64-7.2.39a3.37,3.37,0,0,0-.5,3.92,3.26,3.26,0,0,0,4.42,1.15Z"/><path class="cls-1" d="M276.17,123.27a4.74,4.74,0,0,0,3.39-1.07,2.31,2.31,0,0,0,0-3.26,4.74,4.74,0,0,0-3.39-1.07c-3.48,0-3.48,5.4,0,5.4Z"/><path class="cls-1" d="M282.1,128.1a2.7,2.7,0,0,1,0,.28c.07-.51.13-1,.2-1.53a2.7,2.7,0,0,0,0,2.81,3.69,3.69,0,0,0,3,1.62c2.56.25,4.11-2.52,3.82-4.65a2,2,0,0,0-1.42-1.42,2.56,2.56,0,0,0-1.45-.06c.84.11.77.1-.19,0l-1.07.15a3.72,3.72,0,0,0-1,.37c-.29.19-.25.21.09,0a2.06,2.06,0,0,0-.83.31c-.65.51-.72.55-.2.14h2l-.21-.15a1.83,1.83,0,0,0-1.9,0,1.94,1.94,0,0,0-.86,2.12Z"/><path class="cls-1" d="M293.5,114l1-.07c.27.17.55.33.83.49.33.31-.49-.55-.63-.62l.05.07a1.12,1.12,0,0,0-.49-.45c-.85-.36-1.08.21-1.64.65a2.25,2.25,0,0,0-.2,2.73,2.15,2.15,0,0,0,3.41.21c1.53-1.49-.5-4.27-2.31-3Z"/><path class="cls-1" d="M292.53,87.29c.1.2-.08-.72-.08-.7a6.25,6.25,0,0,0-.71-1.74c-.5-.87-.77-1.92-1.65-2.5a1.06,1.06,0,0,0-1.1,0c-1.18.87-1.28,2.56-1.26,3.93A4.49,4.49,0,0,0,290,89.81c1.7,1.06,3.28-1,2.52-2.52Z"/><path class="cls-1" d="M280.79,56.87c-1.09-1.06-2.14-2.21-3.67-2.57a.9.9,0,0,0-1.1,1.1c.37,1.53,1.51,2.57,2.58,3.67,1.39,1.43,3.62-.81,2.19-2.2Z"/><path class="cls-1" d="M249.16,45.4c1.37-.37,2.37-2,.88-3a1.18,1.18,0,0,0-1.19,0,1.1,1.1,0,0,0-.35.26c-.82.81,1.52,0,.66-.26-2.52-.64-2.47,3.65,0,3Z"/><path class="cls-4" d="M115.16,68.81a.21.21,0,0,0,0-.06,7.12,7.12,0,0,0,2-4.71,6.52,6.52,0,0,0-2-4.7,6.82,6.82,0,0,0-6.46-1.71A6.62,6.62,0,0,0,103.86,64v.09a6.68,6.68,0,0,0,3.28,5.71c2.37,1.38,6.18,1.25,8-1Z"/><path class="cls-4" d="M126.71,53.46a3.92,3.92,0,1,0-3.92-3.93,4,4,0,0,0,3.92,3.93Z"/><path class="cls-4" d="M134.08,49.84a4.53,4.53,0,1,0-4.52-4.52,4.57,4.57,0,0,0,4.52,4.52Z"/><path class="cls-4" d="M132,64.87a4.65,4.65,0,0,0,2.22-.64,3.88,3.88,0,1,0-5.31-5.31,4.46,4.46,0,0,0-.63,2.22A3.7,3.7,0,0,0,132,64.87Z"/><path class="cls-4" d="M130.21,72.37a3.61,3.61,0,0,0-.16-2.49,2.38,2.38,0,0,0-4.56,0,3.56,3.56,0,0,0-.16,2.49,2.55,2.55,0,0,0,4.88,0Z"/><path class="cls-4" d="M77.31,98.26a.6.6,0,0,1,.09.13,2.9,2.9,0,0,0,2.38,1.36,2.76,2.76,0,1,0-1.38-5.14l-.15.08a2.61,2.61,0,0,0-.94,3.57Z"/><path class="cls-4" d="M81.46,103.28c1.5.35,3.15-1.08,2.24-2.65a1.54,1.54,0,0,0-1.61-.77c.72-.22-.52.19-.55.21s-.65.44-.46.32a1.59,1.59,0,0,0,.38,2.89Z"/><path class="cls-4" d="M83,103.45a2.85,2.85,0,0,0-1.73-.1,1.72,1.72,0,0,0-1,2.5c.13.22.28.42.4.65a2.08,2.08,0,1,0,2.35-3Z"/><path class="cls-4" d="M61.31,112.31a2.87,2.87,0,0,0,.5-3.53c.07.55.13,1.09.21,1.63a3.25,3.25,0,0,0-.05-1.55v.85a1.76,1.76,0,0,0-2.38-2c-.17.06-.32.13-.48.2.34-.13.2-.07-.4.18a3.11,3.11,0,0,0-1,1,2.72,2.72,0,0,0,.42,3.21c.79,1,2.32.72,3.17,0Z"/><path class="cls-4" d="M74.46,104.92a3.06,3.06,0,0,0,.63,2.45,2.41,2.41,0,0,0,2.85.22,1.69,1.69,0,0,0,.76-1.88h0c0,.37-.09.74-.14,1.11a2.75,2.75,0,0,0,.48-1.35.85.85,0,0,0-.86-.86c-.3,0-.58.07-.88,0l1.26.72a1.64,1.64,0,0,0-1-.8c-.32-.06-.24,0,.22.15a2.45,2.45,0,0,0-.67-.47c.2.22.41.42.61.62a.55.55,0,0,1-.07-.36c-.26-1.87-3.1-1.3-3.17.43Z"/><path class="cls-4" d="M97.73,104.2a3,3,0,0,0,1,.31.75.75,0,0,0,.67-.38.89.89,0,0,0-.25-1.18.65.65,0,0,0-.49-.09c-.12,0-.79.41-.32.21.31,0,.63.07.93.12a1.54,1.54,0,0,0-.15-.35c-.7-1.53-2.87.67-1.35,1.36Z"/><path class="cls-4" d="M108.13,101.23a2.14,2.14,0,0,0,1.68,2.09c1,.19,2-1.1,1.07-1.86-.19-.16-.38-.27-.43-.54-.25-1.31-2.49-1-2.32.31Z"/><path class="cls-4" d="M155.2,70.77c3.58,0,3.58-5.54,0-5.54s-3.57,5.54,0,5.54Z"/><path class="cls-4" d="M152.35,82.81a2.84,2.84,0,0,0,3.48,1.93c1.68-.26,2.39-2.5,2-3.91A2.33,2.33,0,0,0,155,79.21a2.77,2.77,0,0,0-.95.41c1.23-.81-1.88,1.39-.45.29l1.33-.36h-.09a2.59,2.59,0,0,0-2.47,3.26Z"/><path class="cls-4" d="M160.75,88.43a.25.25,0,0,1,0-.07,2,2,0,0,0-1.2-3h-.09a2.07,2.07,0,1,0,1.25,3Z"/><path class="cls-4" d="M172.92,91.91a3.43,3.43,0,0,0,0-2c-.43-1.45-2.35-2.5-3.73-1.52-.45.3-.13.24,1-.15a2.92,2.92,0,1,0,2.81,3.7Z"/><path class="cls-4" d="M183.15,67.14a2.72,2.72,0,0,0-1.06.11c.31-.08-1.54.43-.49.18A2.74,2.74,0,1,0,184.26,72a5,5,0,0,0,.54-.68c.22-.35.08-.23-.42.37a2.44,2.44,0,0,0,1.13-2.76,2.53,2.53,0,0,0-2.36-1.79Z"/><path class="cls-4" d="M185.53,61.36l-.21.3c-2.31,3.46,2.3,8.07,5.76,5.75l.31-.2a4.28,4.28,0,1,0-5.86-5.85Z"/><path class="cls-4" d="M146.43,89.63a2.72,2.72,0,0,1,0-.7c-.15.53-.28,1.06-.43,1.59a4.43,4.43,0,0,0-.67-5.65,3.62,3.62,0,0,0-6.12,2.54A4.59,4.59,0,0,0,142.47,92l-1.38-.81.5.47c1.74,1.64,4.92.55,4.84-2Z"/><path class="cls-4" d="M129.48,96c-.78,1.15.27-.26.45-.66.59-1.14.87-3,0-4.09a3.78,3.78,0,0,0-2.05-1.72,4.08,4.08,0,0,0-3.06.38,4.24,4.24,0,0,0-1.51,5.8,3.65,3.65,0,0,0,6.17.29Z"/><path class="cls-4" d="M134.73,89.63c0-.2,0-.39,0-.57,0,0,0-.91,0-.46,0-.24.05-.47.09-.7-.09-.84-.12-.92-.08-.28a3.24,3.24,0,0,0,.13-1.16A1.82,1.82,0,0,0,133,84.68a4,4,0,0,0-2.73,1.37c-.92.91-1,2.37-1.05,3.58-.21,3.52,5.64,3.53,5.47,0Z"/><path class="cls-4" d="M156.26,61c4.5,0,4.5-7,0-7s-4.51,7,0,7Z"/><path class="cls-4" d="M165.71,52.25a4.19,4.19,0,0,0,0,2.08,1.7,1.7,0,0,0,3.25,0,4.31,4.31,0,0,0,0-2.08,1.7,1.7,0,0,0-3.25,0Z"/><path class="cls-4" d="M189.05,93.29l.09-.1a3.22,3.22,0,0,0,0-4.42l-.09-.1c-1.93-2.19-5.57-.41-5.57,2.3s3.64,4.49,5.57,2.32Z"/><path class="cls-4" d="M270.73,99.55a2.68,2.68,0,0,0,2.67-1.48c.53-1.09-.37-2.89-1.78-2.32a3.57,3.57,0,0,0-1.05.57,2.7,2.7,0,0,1-.59.46c-1.51.65-.54,2.64.75,2.77Z"/><path class="cls-4" d="M271.45,105.16a0,0,0,0,1,0,0l.37-.48,0,0a.76.76,0,0,0,.2,1.48c.7.06,1.05-.41,1.16-1a.88.88,0,1,0-1.71,0Z"/><path class="cls-4" d="M234.88,113.39l-.18.16-1.27.34a3.36,3.36,0,0,0,2.47-1.12,2.66,2.66,0,0,0,.4-3.12,2.62,2.62,0,0,0-2.92-1.19c-1.62.49-3,2.17-2.3,3.93.58,1.49,2.53,2.38,3.8,1Z"/><path class="cls-4" d="M210.77,122.68c0,.06.1.13.16.19l-.6-1.44v.12a2.25,2.25,0,0,0,1.66,2.17c1.51.27,2.81-.08,3.41-1.6-.15.27-.31.55-.47.81a1.85,1.85,0,0,0,.62-1.9c-.25-.9-1.11-1.17-1.93-1.26l1.31.55a3,3,0,0,0-3.59-.64h2l-.23-.11a2,2,0,0,0-2.39,3.11Z"/><path class="cls-4" d="M224.44,129.18a2.44,2.44,0,0,0,1.35.49,1.73,1.73,0,0,0,.88-3.2l-.32-.19a1,1,0,0,0-.93,0l-.08,0h.91a.15.15,0,0,0-.07,0l.77.44c-.09-.09-.11-.1,0,0a1.8,1.8,0,1,0-2.49,2.49Z"/><path class="cls-4" d="M175.11,78.19a3.25,3.25,0,0,0-.74-3,3.16,3.16,0,0,0-2.71-.79,1.56,1.56,0,0,0-1.11,1.1,2.82,2.82,0,0,0-.12,1c.19-.48.39-1,.59-1.43a3.12,3.12,0,0,0-.93,3.18c.4,2.47,4.67,2.51,5,0Z"/><path class="cls-4" d="M157.45,69.47a5.59,5.59,0,0,0,2.4-2.27,7.69,7.69,0,0,0,.85-3.29c.25-2-1.31-4.14-2.93-5.09s-4.32-1.24-5.94,0a7.68,7.68,0,0,0-2.37,2.31,6.3,6.3,0,0,0-.82,3.28,5.87,5.87,0,0,0,2.9,5.06,6.12,6.12,0,0,0,5.91,0Z"/><path class="cls-4" d="M154.35,58.92c2.08-.81,3.67-2,4.28-4.26l-1.47,2.53a5.66,5.66,0,0,0,1.6-5.63c-.72-2.64-3.06-4-5.66-4.16l2.9.79a5.71,5.71,0,0,0-4.78-.63,6,6,0,0,0-4.12,7.25c.79,2.85,4.25,5.28,7.25,4.11Z"/><path class="cls-4" d="M115.41,61.17A7.06,7.06,0,0,0,122.49,59L112,50.89,117.22,48,124,54.81v-.05a7,7,0,0,0-2-4.8c-1.56-1.56-4.43-2.62-6.61-1.75a7.38,7.38,0,0,0-5,6c-.51,3.54-.41,7.17,3.18,9.27a7.17,7.17,0,0,0,8.52-1.12c.69-.63,1.38-1.27,2-1.92a25,25,0,0,0,1.81-2c.55-.71,1.09-1.41,1.61-2.13.28-.38,1.58-2,.22-.35,2.17-2.64,3-6,1.18-9.1s-5.09-4-8.48-3.44c-3.2.49-5.56,3.36-6.6,6.22a5.57,5.57,0,0,0-.37,2.26q.3-2.07.06-.93a7,7,0,0,0,.61,5.34,6.11,6.11,0,0,0,3.73,2.82,6.42,6.42,0,0,0,3.37,0c.78-.13,1.5.14-.46.08A9.61,9.61,0,0,0,129,54.38L115.27,48.6c-.08.31-.17.61-.28.91.44-1,.49-1.21.14-.54a19,19,0,0,1-1.1,1.7c-.44.59-.31.42.4-.52-.24.3-.5.6-.75.89-.45.52-2.2,2.15,0,.47l3.49-.93h-.05l4.89,2,0-.05,1.78,3.06c-.3-.76.21,2.26.15,1.27a6.17,6.17,0,0,1,0-.86c0-1.11.4-1.66-.13.55l-3.12,4.06h0l-10.23-5.87s0,0,0,.05a7.33,7.33,0,0,0,2,4.8,6.46,6.46,0,0,0,4.8,2A8.06,8.06,0,0,0,121,60.55a7.2,7.2,0,0,0,3.48-6.27,6.78,6.78,0,0,0-6.71-6.71c-3.51,0-6.91,3.06-6.72,6.71.17,3,1.29,5.88,4.38,6.89Z"/><path class="cls-4" d="M103,77.09a4.82,4.82,0,0,0,4.51-1.28c2.13-1.86,1.41-5.47-.87-6.81a4.41,4.41,0,0,0-6.39,2.59c-.65,2.07.33,5.07,2.75,5.5Z"/><path class="cls-4" d="M93.2,81.59s0,0,.06-.08c1.26-1.72,0-4.48-2-4.93l-.08,0L93.09,78a1.63,1.63,0,0,0-.11-.17,3.07,3.07,0,0,0-2.65-1.53,3.19,3.19,0,0,0-3,2.26,1.19,1.19,0,0,1-.08.2l1.47-1.9-.07,0c-2.15,1.12-2.22,4.7,0,5.79l.09,0a3.34,3.34,0,0,0,4.44-1.16Z"/><path class="cls-4" d="M84.76,79.24c-.49,2.79,3.44,3.2,4.44,1a1.17,1.17,0,0,0-.68-1.7,2.2,2.2,0,0,0-1-.07c.64-.09-.43-.12-.44-.12a3.23,3.23,0,0,0-1.33,0,1.36,1.36,0,0,0-1,1Z"/></svg>