<svg id="Capa_1" data-name="Capa 1" xmlns="http://www.w3.org/2000/svg" viewBox="0 0 575 211.21"><title>LOGO C</title><g id="Capa_2" data-name="Capa 2"><g id="Capa_1-2" data-name="Capa 1-2"><polygon points="79.97 59.04 64.26 115.94 98.02 115.94 82.31 59.04 79.97 59.04" style="fill:#e87323"/><path d="M0,0V211.21H575V0ZM131.78,158.83q0,4-.27,7.8a19.71,19.71,0,0,1-1.64,6.79,10.8,10.8,0,0,1-4.36,4.83q-3,1.81-8.38,1.81a16.84,16.84,0,0,1-8.49-1.81,11.13,11.13,0,0,1-4.41-4.78,18.37,18.37,0,0,1-1.7-6.79c-.18-2.55-.26-5.16-.26-7.85V144H59.81v14.87c0,2.69-.09,5.3-.27,7.85a18.37,18.37,0,0,1-1.7,6.79,11.11,11.11,0,0,1-4.4,4.78q-3,1.82-8.5,1.81t-8.49-1.81a10.78,10.78,0,0,1-4.35-4.83,18.73,18.73,0,0,1-1.59-6.79q-.21-3.76-.21-7.8v-3.19c0-2.19,0-4.53.05-7s.09-5,.16-7.54.14-5.08.21-7.59.14-4.9.21-7.17Q36.24,107.92,42.08,89T53.22,51.4a67.64,67.64,0,0,1,2.55-7.59,21.6,21.6,0,0,1,3.93-6.37A17.86,17.86,0,0,1,66,33.09a24.89,24.89,0,0,1,9.77-1.65H86.34a25,25,0,0,1,9.72,1.65,17.68,17.68,0,0,1,6.31,4.35,20.73,20.73,0,0,1,3.88,6.37q1.43,3.66,2.6,7.59l22.08,74.94c.14,4.82.32,9.73.53,14.76s.32,9.87.32,14.54Zm109,14.06a12.84,12.84,0,0,1-5.37,4.72,22.45,22.45,0,0,1-7.59,2c-2.83.28-5.69.43-8.59.43H189.05c-3.75,0-7.08-.15-10-.43a19.78,19.78,0,0,1-7.38-2,10.63,10.63,0,0,1-4.61-4.72,19,19,0,0,1-1.6-8.54V55.86c0-3,.14-6,.43-8.92a23.24,23.24,0,0,1,2.07-7.8,13.64,13.64,0,0,1,4.83-5.57q3.18-2.13,8.81-2.13,6,0,9.45,2.13a12.9,12.9,0,0,1,5,5.57,23.38,23.38,0,0,1,2,7.8c.25,2.9.37,5.88.37,8.92v93H219.2q4.35,0,8.59.42a23,23,0,0,1,7.59,2,13,13,0,0,1,5.37,4.67c1.33,2.05,2,4.84,2,8.39a16.1,16.1,0,0,1-2,8.55Zm76.06-82.43c2.83,0,5.67.09,8.54.27a22.85,22.85,0,0,1,7.65,1.7,12.79,12.79,0,0,1,5.46,4.35c1.42,2,2.13,4.65,2.13,8.12s-.71,6.26-2.13,8.17a13.07,13.07,0,0,1-5.46,4.3,22.61,22.61,0,0,1-7.65,1.7q-4.29.27-8.54.27H303.43v30.57H328.7c2.83,0,5.69.1,8.59.32a25.26,25.26,0,0,1,7.86,1.75,13.1,13.1,0,0,1,5.73,4.46c1.49,2,2.24,4.78,2.23,8.33s-.76,6.55-2.28,8.6a13.78,13.78,0,0,1-5.79,4.56,24.67,24.67,0,0,1-7.85,1.81c-2.9.21-5.73.31-8.49.32H287.08q-5.94,0-9.18-2.13a12.37,12.37,0,0,1-4.72-5.57,23,23,0,0,1-1.75-7.8c-.18-2.9-.27-5.88-.27-8.92V55.86c0-3,.09-6,.27-8.92a23,23,0,0,1,1.75-7.8,12.37,12.37,0,0,1,4.72-5.57q3.24-2.13,9.18-2.13H328.7q4.24,0,8.59.32a24.73,24.73,0,0,1,7.86,1.81,13.49,13.49,0,0,1,5.73,4.51c1.49,2,2.23,4.83,2.23,8.44s-.74,6.42-2.23,8.44a13.49,13.49,0,0,1-5.73,4.51,24.45,24.45,0,0,1-7.86,1.8c-2.9.21-5.76.31-8.59.32H303.43V90.46Zm161.3,62.21a64.45,64.45,0,0,1,3.87,7,15.81,15.81,0,0,1,1.65,6.85,11.68,11.68,0,0,1-1.54,5.68,15.62,15.62,0,0,1-5.68,5.36,18.81,18.81,0,0,1-8.7,2.55,11,11,0,0,1-5-1.12,16.67,16.67,0,0,1-4.14-2.92,27,27,0,0,1-3.56-4.14c-1.1-1.55-2.17-3.15-3.24-4.77l-21.44-34.82h-3.18l-21.45,34.82c-1.06,1.62-2.14,3.22-3.23,4.77A29.48,29.48,0,0,1,399,176a16.35,16.35,0,0,1-4.08,2.92A10.89,10.89,0,0,1,390,180a17.15,17.15,0,0,1-8.49-2.55,16.29,16.29,0,0,1-6-5.36,11.26,11.26,0,0,1-1.64-5.68,15.94,15.94,0,0,1,1.64-6.85,64.53,64.53,0,0,1,3.88-7l29.72-46.5v-1.91L382.36,63.71c-1.56-2.33-3-4.67-4.25-7a61.21,61.21,0,0,1-2.92-6.05,14.78,14.78,0,0,1-1.32-5.42,12.15,12.15,0,0,1,1.64-5.84A15.25,15.25,0,0,1,381.3,34a18.78,18.78,0,0,1,8.7-2.55,11.46,11.46,0,0,1,5.47,1.33,17.88,17.88,0,0,1,4.56,3.5,34.87,34.87,0,0,1,3.88,4.94q1.8,2.76,3.5,5.52l19.75,32.48h3.18l19.74-32.48c1.14-1.84,2.3-3.68,3.51-5.52a34.8,34.8,0,0,1,3.87-4.94,18.52,18.52,0,0,1,4.51-3.5,11.42,11.42,0,0,1,5.52-1.33,12.39,12.39,0,0,1,4.09.75,33.73,33.73,0,0,1,4.62,2,16,16,0,0,1,6.16,5.26A10.69,10.69,0,0,1,484.05,45a14.14,14.14,0,0,1-1.38,5.52,64.24,64.24,0,0,1-3.07,6.16,66.31,66.31,0,0,1-4.46,7L448.6,104.26v1.91Zm63.11,23.09q-4.56,4.29-12.84,4.3-8.5,0-13.06-4.3t-4.57-13.33q0-9.12,4.57-13.26t13-4.17q8.8,0,13.11,4.14t4.3,13.26q0,9.06-4.57,13.36Z" style="fill:#e87323"/></g></g></svg>