<svg xmlns="http://www.w3.org/2000/svg" width="575" height="321.76172" viewBox="0 0 575 321.76172"><title>LOGO</title><g id="Capa_2" data-name="Capa 2"><g id="Capa_1-2" data-name="Capa 1"><g id="Capa_2-2" data-name="Capa 2"><g id="Capa_1-2-2" data-name="Capa 1-2"><polygon points="79.97 59.04 64.26 115.94 98.02 115.94 82.31 59.04 79.97 59.04" style="fill:#e87323"/><path d="M0,0V211.21H575V0ZM131.78,158.83q0,4-.27,7.8a19.71017,19.71017,0,0,1-1.64,6.79,10.8,10.8,0,0,1-4.36,4.83q-3,1.81-8.38,1.81a16.83992,16.83992,0,0,1-8.49-1.81,11.13,11.13,0,0,1-4.41-4.78,18.37012,18.37012,0,0,1-1.7-6.79c-.18-2.55-.26-5.16-.26-7.85V144H59.81v14.87c0,2.69-.09,5.3-.27,7.85a18.37,18.37,0,0,1-1.7,6.79,11.10994,11.10994,0,0,1-4.4,4.78q-3,1.82-8.5,1.81t-8.49-1.81a10.78,10.78,0,0,1-4.35-4.83,18.73,18.73,0,0,1-1.59-6.79q-.21-3.76-.21-7.8v-3.19c0-2.19,0-4.53.05-7s.09-5,.16-7.54.14-5.08.21-7.59.14-4.9.21-7.17Q36.24,107.92,42.08,89T53.22,51.4a67.64044,67.64044,0,0,1,2.55-7.59,21.6,21.6,0,0,1,3.93-6.37A17.86,17.86,0,0,1,66,33.09a24.89,24.89,0,0,1,9.77-1.65H86.34a25,25,0,0,1,9.72,1.65,17.68,17.68,0,0,1,6.31,4.35,20.73,20.73,0,0,1,3.88,6.37q1.43,3.66,2.6,7.59l22.08,74.94c.14,4.82.32,9.73.53,14.76s.32,9.87.32,14.54Zm109,14.06a12.84,12.84,0,0,1-5.37,4.72,22.45,22.45,0,0,1-7.59,2c-2.83.28-5.69.43-8.59.43H189.05c-3.75,0-7.08-.15-10-.43a19.78007,19.78007,0,0,1-7.38-2,10.63,10.63,0,0,1-4.61-4.72,19.0001,19.0001,0,0,1-1.6-8.54V55.86c0-3,.14-6,.43-8.92a23.23975,23.23975,0,0,1,2.07-7.8,13.64,13.64,0,0,1,4.83-5.57q3.18-2.13,8.81-2.13,6,0,9.45,2.13a12.9,12.9,0,0,1,5,5.57,23.38,23.38,0,0,1,2,7.8c.25,2.9.37,5.88.37,8.92v93H219.2q4.35,0,8.59.42a22.99989,22.99989,0,0,1,7.59,2,12.99993,12.99993,0,0,1,5.37,4.67c1.33,2.05,2,4.84,2,8.39a16.09994,16.09994,0,0,1-2,8.55Zm76.06-82.43c2.83,0,5.67.09,8.54.27a22.84987,22.84987,0,0,1,7.65,1.7,12.78992,12.78992,0,0,1,5.46,4.35c1.42,2,2.13,4.65,2.13,8.12s-.71,6.26-2.13,8.17a13.0701,13.0701,0,0,1-5.46,4.3,22.61,22.61,0,0,1-7.65,1.7q-4.29.27-8.54.27H303.43v30.57H328.7c2.83,0,5.69.1,8.59.32a25.25965,25.25965,0,0,1,7.86,1.75,13.1,13.1,0,0,1,5.73,4.46c1.49,2,2.24,4.78,2.23,8.33s-.76,6.55-2.28,8.6a13.77992,13.77992,0,0,1-5.79,4.56,24.66986,24.66986,0,0,1-7.85,1.81c-2.9.21-5.73.31-8.49.32H287.08q-5.94,0-9.18-2.13a12.37,12.37,0,0,1-4.72-5.57,23.00007,23.00007,0,0,1-1.75-7.8c-.18-2.9-.27-5.88-.27-8.92V55.86c0-3,.09-6,.27-8.92a23.00007,23.00007,0,0,1,1.75-7.8,12.37,12.37,0,0,1,4.72-5.57q3.24-2.13,9.18-2.13H328.7q4.24,0,8.59.32a24.7301,24.7301,0,0,1,7.86,1.81,13.49,13.49,0,0,1,5.73,4.51c1.49,2,2.23,4.83,2.23,8.44s-.74,6.42-2.23,8.44a13.49,13.49,0,0,1-5.73,4.51,24.44991,24.44991,0,0,1-7.86,1.8c-2.9.21-5.76.31-8.59.32H303.43V90.46Zm161.3,62.21a64.45034,64.45034,0,0,1,3.87,7,15.81,15.81,0,0,1,1.65,6.85,11.68,11.68,0,0,1-1.54,5.68,15.61991,15.61991,0,0,1-5.68,5.36,18.80981,18.80981,0,0,1-8.7,2.55,10.99982,10.99982,0,0,1-5-1.12,16.66979,16.66979,0,0,1-4.14-2.92,27.00069,27.00069,0,0,1-3.56-4.14c-1.1-1.55-2.17-3.15-3.24-4.77l-21.44-34.82h-3.18l-21.45,34.82c-1.06,1.62-2.14,3.22-3.23,4.77A29.48113,29.48113,0,0,1,399,176a16.34984,16.34984,0,0,1-4.08,2.92A10.88987,10.88987,0,0,1,390,180a17.15006,17.15006,0,0,1-8.49-2.55,16.29,16.29,0,0,1-6-5.36,11.26018,11.26018,0,0,1-1.64-5.68,15.94018,15.94018,0,0,1,1.64-6.85,64.53084,64.53084,0,0,1,3.88-7l29.72-46.5v-1.91L382.36,63.71c-1.56-2.33-3-4.67-4.25-7a61.20969,61.20969,0,0,1-2.92-6.05,14.77988,14.77988,0,0,1-1.32-5.42,12.14988,12.14988,0,0,1,1.64-5.84A15.25017,15.25017,0,0,1,381.3,34a18.7801,18.7801,0,0,1,8.7-2.55,11.46,11.46,0,0,1,5.47,1.33,17.88,17.88,0,0,1,4.56,3.5,34.87,34.87,0,0,1,3.88,4.94q1.8,2.76,3.5,5.52l19.75,32.48h3.18l19.74-32.48c1.14-1.84,2.3-3.68,3.51-5.52a34.79983,34.79983,0,0,1,3.87-4.94,18.51994,18.51994,0,0,1,4.51-3.5,11.42,11.42,0,0,1,5.52-1.33,12.39,12.39,0,0,1,4.09.75,33.73,33.73,0,0,1,4.62,2,16,16,0,0,1,6.16,5.26A10.69,10.69,0,0,1,484.05,45a14.13967,14.13967,0,0,1-1.38,5.52,64.23926,64.23926,0,0,1-3.07,6.16,66.30884,66.30884,0,0,1-4.46,7L448.6,104.26v1.91Zm63.11,23.09q-4.56,4.29-12.84,4.3-8.49994,0-13.06-4.3t-4.57-13.33q0-9.12,4.57-13.26t13-4.17q8.8,0,13.11,4.14t4.3,13.26q0,9.06-4.57,13.36Z" style="fill:#e87323"/></g></g><path d="M8.48438,293.44141v-36.957q0-14.603,7.81055-21.46289,7.81055-6.8584,20.38281-6.8584,12.95508,0,20.8916,6.41309a20.34048,20.34048,0,0,1,7.9375,16.57422q0,4.06494-1.52344,5.52441-1.5249,1.46045-5.207,1.46-6.605,0-6.73145-4.44434-.76172-13.58936-14.85937-13.58984-15.23877,0-15.23926,16.38379v36.957q0,16.38281,15.49414,16.38281a19.03591,19.03591,0,0,0,7.61914-1.334,8.6181,8.6181,0,0,0,4.38184-3.873,22.20515,22.20515,0,0,0,1.8418-4.44531,29.00316,29.00316,0,0,0,.76172-4.69922q.38086-4.44287,6.60449-4.44434,3.68115,0,5.27051,1.46,1.58643,1.46191,1.58691,5.52441a21.18663,21.18663,0,0,1-8.001,17.14551q-8.001,6.605-20.95508,6.60352-12.57275,0-20.31934-6.85742Q8.48242,308.0459,8.48438,293.44141Z" style="fill:#e87323"/><path d="M71.51367,315.42188a3.83439,3.83439,0,0,1,.127-1.14062l25.21973-82.3125q1.61572-4.56592,9.02832-4.56738,7.54688,0,9.16406,4.25586l25.14648,82.2959a4.44478,4.44478,0,0,1,.25391,1.19727q0,2.39209-2.96094,4.12109A12.24809,12.24809,0,0,1,131.21582,321q-4.00928,0-4.97656-2.76465l-5.25879-18.19043H89.76172l-5.19434,18.14355Q83.67969,321.001,79.87793,321a10.63468,10.63468,0,0,1-5.70312-1.64746Q71.51318,317.70459,71.51367,315.42188ZM92.81836,289.377h25.209L105.2959,245.79Z" style="fill:#e87323"/><path d="M149.45117,316.55469V232.48145a4.15666,4.15666,0,0,1,1.27051-3.04883,4.31367,4.31367,0,0,1,3.1748-1.26953h24.12988q29.209,0,29.21094,25.9082,0,10.75049-4.82617,16.88281a23.06835,23.06835,0,0,1-13.082,8.1582l17.78125,33.47949a3.825,3.825,0,0,1,.50781,1.90918,6.15947,6.15947,0,0,1-2.60352,4.71484,8.5048,8.5048,0,0,1-5.52539,2.165q-3.30176,0-5.334-3.94922l-18.541-36.43652H162.78613V316.541a3.672,3.672,0,0,1-1.96777,3.248A8.9133,8.9133,0,0,1,156.05566,321a8.68,8.68,0,0,1-4.63574-1.20605A3.65843,3.65843,0,0,1,149.45117,316.55469Zm13.335-46.22754h15.24023q15.74707,0,15.748-15.11328,0-15.11133-15.748-15.11328H162.78613Z" style="fill:#e87323"/><path d="M219.55469,293.44141v-36.957q0-14.603,7.74707-21.46289,7.74463-6.8584,20.31934-6.8584,12.82617,0,20.8916,6.41309a20.72492,20.72492,0,0,1,8.06445,17.082q0,3.68408-1.58691,5.08008-1.58936,1.39893-5.14355,1.39648-6.605,0-6.73145-4.44434-1.39893-13.58936-15.1123-13.58984-14.98828,0-14.98633,16.38379v36.957q0,16.38281,14.98633,16.38281,7.23779,0,11.17578-4.082,3.93457-4.084,3.93652-12.37891V282.90039H250.28809a3.70793,3.70793,0,0,1-3.1748-1.56836,6.32583,6.32583,0,0,1-1.14258-3.8291,6.19936,6.19936,0,0,1,1.14258-3.63965,3.66179,3.66179,0,0,1,3.1748-1.63086h21.84473a4.156,4.156,0,0,1,3.23828,1.333,4.657,4.657,0,0,1,1.20605,3.23828v16.6377q0,14.606-7.81055,21.46289t-20.76367,6.85742q-12.95508,0-20.70117-6.85742Q219.55273,308.0459,219.55469,293.44141Z" style="fill:#e87323"/><path d="M284.49121,315.42188a3.83439,3.83439,0,0,1,.127-1.14062l25.21973-82.3125q1.61572-4.56592,9.0293-4.56738,7.54541,0,9.16309,4.25586l25.14648,82.2959a4.40642,4.40642,0,0,1,.25391,1.19727q0,2.39209-2.96094,4.12109A12.24551,12.24551,0,0,1,344.19336,321q-4.00928,0-4.97656-2.76465L333.958,300.04492H302.74023l-5.19531,18.14355q-.8877,2.8125-4.68945,2.81152a10.63468,10.63468,0,0,1-5.70312-1.64746Q284.49219,317.70459,284.49121,315.42188ZM305.7959,289.377h25.209L318.27344,245.79Z" style="fill:#e87323"/><path d="M362.42871,316.55469V232.6084q0-4.44434,6.73145-4.44531A9.42954,9.42954,0,0,1,374.875,229.751q2.15771,1.58936,4.44531,6.03223l28.19336,54.99121v-58.293a3.48214,3.48214,0,0,1,1.96875-3.23926,11.04981,11.04981,0,0,1,9.52539,0,3.48454,3.48454,0,0,1,1.96777,3.23926v84.07324a3.66119,3.66119,0,0,1-1.96777,3.23926A8.94074,8.94074,0,0,1,414.24512,321a8.5837,8.5837,0,0,1-8.001-4.95312l-30.35352-57.78516v58.293a3.66119,3.66119,0,0,1-1.96777,3.23926,9.88166,9.88166,0,0,1-9.46191,0A3.6447,3.6447,0,0,1,362.42871,316.55469Z" style="fill:#e87323"/><path d="M437.73828,316.68164v-84.2002a3.71683,3.71683,0,0,1,1.71484-3.04883,6.95786,6.95786,0,0,1,4.25391-1.26953h22.47949q12.95361,0,20.76465,6.8584,7.81055,6.85693,7.81055,21.46289v36.19434q0,14.606-7.81055,21.46289Q479.14062,321,466.18652,321H443.707a6.94519,6.94519,0,0,1-4.25391-1.26953A3.7117,3.7117,0,0,1,437.73828,316.68164Zm13.46191-7.62012h14.98633q15.11133,0,15.11328-16.38281V256.48438q0-16.38428-15.11328-16.38379H451.2002Z" style="fill:#e87323"/><path d="M509.62012,293.44141v-36.957q0-14.603,7.74707-21.46289,7.74463-6.8584,20.70117-6.8584,12.95361,0,20.76367,6.8584,7.81055,6.85693,7.81055,21.46289v36.957q0,14.606-7.81055,21.46289t-20.76367,6.85742q-12.95508,0-20.70117-6.85742Q509.61816,308.0459,509.62012,293.44141Zm13.46191,0q0,16.38281,14.98633,16.38281,7.23779,0,11.17578-4.06445,3.93457-4.062,3.93652-12.31836v-36.957q0-8.25439-3.93652-12.31934-3.939-4.06348-11.17578-4.06445-14.98828,0-14.98633,16.38379Z" style="fill:#e87323"/></g></g></svg>