<svg xmlns="http://www.w3.org/2000/svg" width="33.56478mm" height="28.45741mm" viewBox="0 0 95.14427 80.66667"><title>ScrollSvg</title><g id="Capa_2" data-name="Capa 2"><g id="Capa_1-2" data-name="Capa 1"><line x1="15.354" y1="59.33333" x2="15.354" y2="79.66667" style="fill:none;stroke:#1f140f;stroke-linecap:round;stroke-linejoin:round;stroke-width:2px"/><path d="M15.354,56A15.37139,15.37139,0,0,1,0,40.64551v-25.291a15.354,15.354,0,1,1,30.708,0v25.291A15.37139,15.37139,0,0,1,15.354,56Zm0-54A13.36973,13.36973,0,0,0,2,15.35449v25.291a13.354,13.354,0,1,0,26.708,0v-25.291A13.36973,13.36973,0,0,0,15.354,2Z" style="fill:#1f140f"/><circle cx="15.35417" cy="12" r="3.33333" style="fill:#1f140f"/><path d="M44.44114,29.814a1.25512,1.25512,0,0,1,.28125-.749.79671.79671,0,0,1,.63672-.37891.82134.82134,0,0,1,.47559.20117,5.54112,5.54112,0,0,1,.51563.44336,2.35026,2.35026,0,0,0,.7168.44336,2.5867,2.5867,0,0,0,1.03125.20117,2.22314,2.22314,0,0,0,1.28906-.35449,1.18966,1.18966,0,0,0,.51563-1.04785,1.40618,1.40618,0,0,0-.28223-.86133,2.25341,2.25341,0,0,0-.74121-.62891q-.4585-.249-1.00684-.4834-.54785-.23291-1.10352-.52344a6.47972,6.47972,0,0,1-1.01562-.65234,2.63031,2.63031,0,0,1-.74121-.9668,3.5345,3.5345,0,0,1,.06445-2.90625,2.63276,2.63276,0,0,1,.92676-1.03027,4.33943,4.33943,0,0,1,1.24023-.54,5.56745,5.56745,0,0,1,1.40234-.17187,7.12851,7.12851,0,0,1,.88574.05859,8.12519,8.12519,0,0,1,.99121.18945,2.08923,2.08923,0,0,1,.85352.41406.84467.84467,0,0,1,.33008.66211,1.4638,1.4638,0,0,1-.22559.74219.68628.68628,0,0,1-.61133.38281,3.03,3.03,0,0,1-.79-.30566,3.2982,3.2982,0,0,0-1.43359-.30664,2.34175,2.34175,0,0,0-1.3457.33008,1.05079,1.05079,0,0,0-.47559.91016,1.06164,1.06164,0,0,0,.38672.81445,3.043,3.043,0,0,0,.959.56348q.57129.21826,1.24023.54785a10.64682,10.64682,0,0,1,1.24121.7168,3.00739,3.00739,0,0,1,.958,1.12012,3.62473,3.62473,0,0,1,.38672,1.71582,3.16448,3.16448,0,0,1-1.05469,2.5498,4.14264,4.14264,0,0,1-2.7793.89746,5.19029,5.19029,0,0,1-2.626-.62793Q44.43968,30.55475,44.44114,29.814Z" style="fill:#1f140f"/><path d="M53.31809,28.07379V23.57867a3.50939,3.50939,0,0,1,1.03125-2.7959,3.96111,3.96111,0,0,1,2.69043-.89355,4.356,4.356,0,0,1,2.76367.83789,2.6829,2.6829,0,0,1,1.07129,2.22266,1.07687,1.07687,0,0,1-.24219.81445,1.19814,1.19814,0,0,1-.80566.2168q-1.03125,0-1.04687-.66016c-.01074-.13965-.02441-.26074-.04-.3623a1.92163,1.92163,0,0,0-.12891-.40332,1.40508,1.40508,0,0,0-.26562-.41895,1.29333,1.29333,0,0,0-.4834-.29,2.169,2.169,0,0,0-.75781-.12012q-1.69189,0-1.69141,1.85254v4.49512q0,1.853,1.72363,1.85254a2.044,2.044,0,0,0,.8623-.16113,1.01748,1.01748,0,0,0,.499-.459,2.45494,2.45494,0,0,0,.21-.53125A3.16621,3.16621,0,0,0,58.78,28.2027q.04834-.66064,1.03125-.66113a1.23231,1.23231,0,0,1,.81348.21777,1.05148,1.05148,0,0,1,.25.81348,2.83847,2.83847,0,0,1-1.07129,2.32031,4.27188,4.27188,0,0,1-2.7793.87012,3.9255,3.9255,0,0,1-2.68262-.89453A3.51929,3.51929,0,0,1,53.31809,28.07379Z" style="fill:#1f140f"/><path d="M62.29173,31.00641V20.53375a.61835.61835,0,0,1,.19336-.45117.65586.65586,0,0,1,.4834-.19336h3.19043q3.81738,0,3.81836,3.36719a3.60239,3.60239,0,0,1-.57227,2.127,2.83025,2.83025,0,0,1-1.53809,1.0957l2.11035,3.915a.38963.38963,0,0,1,.08008.25781.97968.97968,0,0,1-.41895.749,1.37118,1.37118,0,0,1-.88574.3457.79287.79287,0,0,1-.72461-.499L65.74,26.80133H64.38645v4.20508a.54016.54016,0,0,1-.30664.4834,1.62406,1.62406,0,0,1-1.47363,0A.53791.53791,0,0,1,62.29173,31.00641Zm2.09473-5.84863h1.77246a1.51649,1.51649,0,0,0,1.72363-1.708,1.52323,1.52323,0,0,0-1.72363-1.72363H64.38645Z" style="fill:#1f140f"/><path d="M71.34641,28.07379V23.57867A3.51754,3.51754,0,0,1,72.36985,20.775a4.71492,4.71492,0,0,1,5.502,0,3.504,3.504,0,0,1,1.03125,2.80371v4.49512a3.504,3.504,0,0,1-1.03125,2.80371,4.71492,4.71492,0,0,1-5.502,0A3.51754,3.51754,0,0,1,71.34641,28.07379Zm2.09473,0q0,1.853,1.67578,1.85254,1.69189,0,1.69141-1.85254V23.57867q0-1.853-1.69141-1.85254-1.67578,0-1.67578,1.85254Z" style="fill:#1f140f"/><path d="M80.69114,31.00641V20.53375a.518.518,0,0,1,.30664-.4834,1.78311,1.78311,0,0,1,1.48145,0,.518.518,0,0,1,.30664.4834v9.2959h3.93164a.51843.51843,0,0,1,.459.27441,1.30735,1.30735,0,0,1,0,1.28906.51745.51745,0,0,1-.459.27344H81.61009a1.15751,1.15751,0,0,1-.64453-.17676A.54733.54733,0,0,1,80.69114,31.00641Z" style="fill:#1f140f"/><path d="M88.49,31.00641V20.53375a.51712.51712,0,0,1,.30566-.4834,1.78535,1.78535,0,0,1,1.48242,0,.518.518,0,0,1,.30664.4834v9.2959h3.93066a.51734.51734,0,0,1,.459.27441,1.30735,1.30735,0,0,1,0,1.28906.51637.51637,0,0,1-.459.27344H89.40794a1.15978,1.15978,0,0,1-.64453-.17676A.5484.5484,0,0,1,88.49,31.00641Z" style="fill:#1f140f"/></g></g></svg>