<svg id="Capa_1" data-name="Capa 1" xmlns="http://www.w3.org/2000/svg" viewBox="0 0 347.97 332.67"><defs><style>.cls-1{fill:#d5d6db;}.cls-2{fill:#e1e6e9;}</style></defs><title>cubos de azucar</title><path class="cls-1" d="M95.19,1.59,5.69,54.15A11.55,11.55,0,0,0,0,64.09v99.82a11.52,11.52,0,0,0,5.52,9.84l89.35,54.61a11.53,11.53,0,0,0,12,0l94.94-57.81a11.54,11.54,0,0,0,5.54-9.85V64.27a11.52,11.52,0,0,0-5.93-10.07L106.64,1.45A11.55,11.55,0,0,0,95.19,1.59Z"/><path class="cls-2" d="M100.89,222.36a3.86,3.86,0,0,1-2-.56L9.53,167.19a3.85,3.85,0,0,1-1.84-3.28V64.09a3.87,3.87,0,0,1,1.9-3.31L99.08,8.22a3.87,3.87,0,0,1,3.82-.05l94.79,52.75a3.83,3.83,0,0,1,2,3.35V160.7a3.89,3.89,0,0,1-1.84,3.28L102.89,221.8A3.85,3.85,0,0,1,100.89,222.36Z"/><path class="cls-1" d="M157.57,80l-44.11,26.27c-17.84,7.4-29.29,0-29.29,0L35.68,80v3.37L78.11,109c17.84,8.08,16.83,26,16.83,26v45.69h5.39V138.6c-1.35-22.22,17.85-29,17.85-29l41.07-26.19Z"/><path class="cls-1" d="M235.8,104.21l-89.49,52.56a11.54,11.54,0,0,0-5.7,9.95v99.81a11.52,11.52,0,0,0,5.52,9.84L235.49,331a11.53,11.53,0,0,0,12,0l94.94-57.82a11.55,11.55,0,0,0,5.53-9.85V166.9A11.54,11.54,0,0,0,342,156.82l-94.79-52.74A11.53,11.53,0,0,0,235.8,104.21Z"/><path class="cls-2" d="M241.5,325a3.81,3.81,0,0,1-2-.57l-89.36-54.61a3.87,3.87,0,0,1-1.84-3.28V166.72a3.87,3.87,0,0,1,1.9-3.32l89.49-52.56a3.94,3.94,0,0,1,2-.53,3.77,3.77,0,0,1,1.86.49l94.79,52.74a3.84,3.84,0,0,1,2,3.36v96.42a3.85,3.85,0,0,1-1.84,3.28L243.5,324.42A3.81,3.81,0,0,1,241.5,325Z"/><path class="cls-1" d="M298.18,182.64l-44.1,26.26c-17.85,7.41-29.3,0-29.3,0L176.3,182.64V186l42.42,25.59c17.85,8.08,16.84,26,16.84,26v45.69h5.38V241.22c-1.34-22.22,17.85-29,17.85-29L299.87,186Z"/><circle class="cls-1" cx="253.45" cy="228.23" r="4.92"/><circle class="cls-1" cx="255.98" cy="243.88" r="4.92"/><circle class="cls-1" cx="255.98" cy="256.97" r="4.92"/><circle class="cls-1" cx="305.97" cy="256.06" r="4.92"/><circle class="cls-1" cx="304.78" cy="241.95" r="4.92"/><circle class="cls-1" cx="267.98" cy="237.04" r="4.92"/><circle class="cls-1" cx="267.98" cy="222.83" r="4.92"/><circle class="cls-1" cx="256.58" cy="290.49" r="4.92"/><circle class="cls-1" cx="332.33" cy="259.44" r="4.92"/><circle class="cls-1" cx="265.45" cy="273.21" r="4.92"/><circle class="cls-1" cx="332.33" cy="182.64" r="4.92"/></svg>