<svg id="Capa_1" data-name="Capa 1" xmlns="http://www.w3.org/2000/svg" viewBox="0 0 176.69 74.95"><defs><style>.cls-1{fill:#a5a5a5;}</style></defs><title>micropuntos</title><path class="cls-1" d="M89.22,54.52H81.36a10.22,10.22,0,0,0,0,20.43h7.86a10.22,10.22,0,0,0,0-20.43Z"/><path class="cls-1" d="M37.15,24.39,29.8,21.61a10.21,10.21,0,0,0-7.23,19.1l7.35,2.78a10.21,10.21,0,1,0,7.23-19.1Z"/><path class="cls-1" d="M56.28,40.18l-7,3.59a10.21,10.21,0,1,0,9.34,18.17l7-3.6a10.21,10.21,0,1,0-9.33-18.16Z"/><path class="cls-1" d="M64.76,8.05,57.42,5.26a10.21,10.21,0,1,0-7.28,19.08l7.34,2.8A10.22,10.22,0,0,0,64.76,8.05Z"/><path class="cls-1" d="M12.46,47.21l-7,3.63A10.22,10.22,0,0,0,14.94,69l7-3.63a10.22,10.22,0,0,0-9.44-18.12Z"/><path class="cls-1" d="M127.3,13.6h-7.85a10.22,10.22,0,1,0,0,20.43h7.85a10.22,10.22,0,1,0,0-20.43Z"/><path class="cls-1" d="M99.19,33.44l-7.35-2.78a10.21,10.21,0,1,0-7.23,19.1L92,52.54a10.21,10.21,0,1,0,7.24-19.1Z"/><path class="cls-1" d="M130.36,42.27,123,44.89a10.21,10.21,0,0,0,6.81,19.26l7.41-2.62a10.21,10.21,0,0,0-6.81-19.26Z"/><path class="cls-1" d="M170.11,49.94l-7.34-2.8a10.22,10.22,0,0,0-7.28,19.09l7.34,2.8a10.22,10.22,0,0,0,7.28-19.09Z"/><path class="cls-1" d="M89.05,2.73l-7,3.63a10.22,10.22,0,0,0,9.44,18.12l7-3.64A10.21,10.21,0,1,0,89.05,2.73Z"/><path d="M89.22,53H81.36a10.22,10.22,0,0,0,0,20.43h7.86a10.22,10.22,0,0,0,0-20.43Z"/><path d="M37.15,22.82,29.8,20a10.21,10.21,0,0,0-7.23,19.1l7.35,2.78a10.21,10.21,0,1,0,7.23-19.1Z"/><path d="M56.28,38.6l-7,3.6a10.21,10.21,0,1,0,9.34,18.16l7-3.59A10.21,10.21,0,0,0,56.28,38.6Z"/><path d="M64.76,6.48l-7.34-2.8a10.22,10.22,0,0,0-7.28,19.09l7.34,2.8A10.22,10.22,0,0,0,64.76,6.48Z"/><path d="M12.46,45.64l-7,3.63a10.22,10.22,0,0,0,9.45,18.12l7-3.64a10.21,10.21,0,1,0-9.44-18.11Z"/><path d="M127.3,12h-7.85a10.22,10.22,0,1,0,0,20.43h7.85a10.22,10.22,0,1,0,0-20.43Z"/><path d="M99.19,31.87l-7.35-2.78a10.21,10.21,0,1,0-7.23,19.1L92,51a10.21,10.21,0,1,0,7.24-19.1Z"/><path d="M130.36,40.7,123,43.32a10.21,10.21,0,0,0,6.81,19.26L137.17,60a10.21,10.21,0,0,0-6.81-19.26Z"/><path d="M170.11,48.37l-7.34-2.8a10.22,10.22,0,0,0-7.28,19.09l7.34,2.8a10.22,10.22,0,0,0,7.28-19.09Z"/><path d="M89.05,1.16l-7,3.63A10.21,10.21,0,1,0,91.52,22.9l7-3.63A10.21,10.21,0,1,0,89.05,1.16Z"/></svg>