<svg id="Capa_1" data-name="Capa 1" xmlns="http://www.w3.org/2000/svg" xmlns:xlink="http://www.w3.org/1999/xlink" viewBox="0 0 284.9 166.33"><defs><style>.cls-1{fill:none;}.cls-2{isolation:isolate;}.cls-3{clip-path:url(#clip-path);}.cls-4{fill:#bcbcbc;}.cls-5{clip-path:url(#clip-path-2);}.cls-6{fill:#ff7e27;}.cls-7{clip-path:url(#clip-path-3);}.cls-8{fill:#ffc82c;}</style><clipPath id="clip-path" transform="translate(-2.06 -19.57)"><polygon class="cls-1" points="0.14 103.39 144.04 19.77 288.88 103.39 144.98 187.02 0.14 103.39"/></clipPath><clipPath id="clip-path-2" transform="translate(-2.06 -19.57)"><polygon class="cls-1" points="0.14 102.09 144.04 18.46 288.88 102.08 144.98 185.71 0.14 102.09"/></clipPath><clipPath id="clip-path-3" transform="translate(-2.06 -19.57)"><polygon class="cls-1" points="62.06 103.38 143.64 55.97 226.96 104.08 145.38 151.49 62.06 103.38"/></clipPath></defs><title>papelito</title><g class="cls-2"><g class="cls-3"><path class="cls-4" d="M285.59,101.49l-13.17-7.6a7.22,7.22,0,0,0-6.56,0,7.26,7.26,0,0,1-6.56,0c-1.82-1-1.83-2.75,0-3.8s1.79-2.75,0-3.8l-19.74-11.4a7.18,7.18,0,0,0-6.57,0,7.26,7.26,0,0,1-6.56,0c-1.82-1-1.82-2.75,0-3.8s1.79-2.75,0-3.8l-19.75-11.4a7.25,7.25,0,0,0-6.57,0,7.26,7.26,0,0,1-6.56,0c-1.81-1.05-1.82-2.75,0-3.8s1.8-2.75,0-3.81l-19.75-11.4a7.25,7.25,0,0,0-6.57,0,7.2,7.2,0,0,1-6.55,0c-1.82-1-1.83-2.75,0-3.8s1.8-2.75,0-3.8l-13.17-7.6a7.25,7.25,0,0,0-6.57,0l-13.08,7.6c-1.8,1.05-1.79,2.75,0,3.8s1.82,2.76,0,3.8a7.22,7.22,0,0,1-6.56,0,7.25,7.25,0,0,0-6.57,0L95,48.27c-1.81,1.06-1.8,2.76,0,3.81s1.83,2.75,0,3.8a7.25,7.25,0,0,1-6.57,0,7.22,7.22,0,0,0-6.56,0L62.27,67.28c-1.8,1-1.79,2.75,0,3.81s1.83,2.75,0,3.8a7.26,7.26,0,0,1-6.56,0,7.25,7.25,0,0,0-6.57,0L29.57,86.29c-1.81,1-1.79,2.75,0,3.8s1.82,2.76,0,3.8a7.25,7.25,0,0,1-6.57,0,7.22,7.22,0,0,0-6.56,0L3.4,101.49c-1.81,1.05-1.79,2.75,0,3.8l13.17,7.6a7.19,7.19,0,0,0,6.56,0,7.22,7.22,0,0,1,6.56,0c1.82,1,1.83,2.75,0,3.8s-1.79,2.75,0,3.8l19.74,11.4a7.25,7.25,0,0,0,6.57,0,7.22,7.22,0,0,1,6.56,0c1.81,1,1.83,2.75,0,3.8s-1.79,2.75,0,3.81l19.74,11.4a7.25,7.25,0,0,0,6.57,0,7.22,7.22,0,0,1,6.56,0c1.81,1,1.83,2.75,0,3.8s-1.8,2.75,0,3.8l19.74,11.4a7.22,7.22,0,0,0,6.56,0,7.28,7.28,0,0,1,6.57,0c1.81,1.05,1.82,2.76,0,3.81s-1.8,2.74,0,3.79l13.17,7.61a7.2,7.2,0,0,0,6.55,0l13.09-7.61c1.81-1,1.8-2.74,0-3.79s-1.82-2.76,0-3.81a7.31,7.31,0,0,1,6.57,0,7.2,7.2,0,0,0,6.55,0L194,158.51c1.8-1,1.79-2.75,0-3.8s-1.82-2.75,0-3.8a7.22,7.22,0,0,1,6.56,0,7.25,7.25,0,0,0,6.57,0l19.62-11.41c1.81-1.05,1.8-2.75,0-3.8s-1.83-2.75,0-3.8a7.26,7.26,0,0,1,6.56,0,7.22,7.22,0,0,0,6.56,0l19.63-11.41c1.8-1,1.8-2.74,0-3.79s-1.83-2.76,0-3.81a7.28,7.28,0,0,1,6.57,0,7.22,7.22,0,0,0,6.56,0l13.08-7.6c1.8-1.05,1.8-2.75,0-3.8" transform="translate(-2.06 -19.57)"/></g></g><g class="cls-2"><g class="cls-5"><path class="cls-6" d="M285.59,100.19l-13.17-7.61a7.22,7.22,0,0,0-6.56,0,7.26,7.26,0,0,1-6.56,0c-1.82-1-1.83-2.75,0-3.79s1.79-2.76,0-3.81l-19.74-11.4a7.25,7.25,0,0,0-6.57,0,7.26,7.26,0,0,1-6.56,0c-1.82-1-1.82-2.75,0-3.8s1.79-2.75,0-3.8L206.59,54.57a7.25,7.25,0,0,0-6.57,0,7.22,7.22,0,0,1-6.56,0c-1.81-1-1.82-2.75,0-3.8s1.8-2.75,0-3.8l-19.75-11.4a7.25,7.25,0,0,0-6.57,0,7.2,7.2,0,0,1-6.55,0c-1.82-1-1.83-2.76,0-3.8s1.8-2.76,0-3.81l-13.17-7.6a7.25,7.25,0,0,0-6.57,0L127.68,28c-1.8,1.05-1.79,2.76,0,3.81s1.82,2.75,0,3.8a7.22,7.22,0,0,1-6.56,0,7.25,7.25,0,0,0-6.57,0L95,47c-1.81,1.05-1.8,2.75,0,3.8s1.83,2.76,0,3.8a7.21,7.21,0,0,1-6.57,0,7.22,7.22,0,0,0-6.56,0L62.27,66c-1.8,1-1.79,2.75,0,3.8s1.82,2.75,0,3.8a7.22,7.22,0,0,1-6.56,0,7.25,7.25,0,0,0-6.57,0L29.57,85c-1.81,1-1.79,2.75,0,3.8s1.83,2.76,0,3.81a7.31,7.31,0,0,1-6.57,0,7.22,7.22,0,0,0-6.56,0L3.4,100.19c-1.81,1-1.79,2.75,0,3.8l13.17,7.6a7.22,7.22,0,0,0,6.56,0,7.22,7.22,0,0,1,6.56,0c1.82,1,1.83,2.75,0,3.8s-1.79,2.75,0,3.8L49.51,130.6a7.25,7.25,0,0,0,6.57,0,7.22,7.22,0,0,1,6.56,0c1.81,1,1.83,2.75,0,3.8s-1.79,2.75,0,3.8l19.74,11.4a7.25,7.25,0,0,0,6.57,0,7.19,7.19,0,0,1,6.56,0c1.81,1.05,1.83,2.76,0,3.81s-1.8,2.74,0,3.8l19.74,11.4a7.22,7.22,0,0,0,6.56,0,7.25,7.25,0,0,1,6.57,0c1.81,1,1.82,2.75,0,3.8s-1.8,2.75,0,3.8l13.17,7.6a7.2,7.2,0,0,0,6.55,0l13.09-7.6c1.81-1.05,1.8-2.75,0-3.8s-1.82-2.76,0-3.8a7.25,7.25,0,0,1,6.57,0,7.2,7.2,0,0,0,6.55,0L194,157.2c1.8-1,1.79-2.74,0-3.79s-1.82-2.76,0-3.81a7.25,7.25,0,0,1,6.57,0,7.22,7.22,0,0,0,6.56,0l19.62-11.4c1.81-1,1.8-2.75,0-3.8s-1.83-2.75,0-3.81a7.26,7.26,0,0,1,6.56,0,7.19,7.19,0,0,0,6.56,0l19.63-11.4c1.8-1,1.8-2.75,0-3.8s-1.83-2.75,0-3.8a7.28,7.28,0,0,1,6.57,0,7.22,7.22,0,0,0,6.56,0l13.08-7.6c1.8-1,1.8-2.75,0-3.8" transform="translate(-2.06 -19.57)"/></g></g><g class="cls-2"><g class="cls-7"><path class="cls-8" d="M198.84,110.61c-2.41,5.51-7.31,10.72-14.72,15-22,12.81-58,12.81-80.16,0a44.14,44.14,0,0,1-8.68-6.42,37.38,37.38,0,0,0,11.79,10.16c21.16,12.21,55.35,12.21,76.37,0,9-5.25,14.16-11.91,15.4-18.76m-81.44,3.87c-8.16-4.72-8.28-12.32-.28-17a4.17,4.17,0,0,1,3.8,0,1.16,1.16,0,0,1,0,2.2c-6,3.49-5.9,9,.25,12.56l6.43,3.71c6.15,3.55,15.59,3.64,21.5.21a4.19,4.19,0,0,1,3.81,0,1.17,1.17,0,0,1,0,2.21c-8,4.67-20.83,4.57-29.11-.21l-6.43-3.71m19-23.21c-2.56-1.48-2.58-3.87,0-5.35a10.17,10.17,0,0,1,9.24,0c2.56,1.48,2.56,3.87,0,5.35a10.15,10.15,0,0,1-9.23,0m26.65,15.38c-2.56-1.47-2.58-3.86,0-5.34a10.18,10.18,0,0,1,9.23,0c2.57,1.49,2.58,3.88,0,5.36a10.14,10.14,0,0,1-9.24,0m20.13-21.51c-21.15-12.22-55.34-12.22-76.36,0-6.95,4-11.59,8.91-13.92,14.06-1.56,8.64,3.39,17.62,14.85,24.24,20.07,11.59,52.62,11.59,72.56,0,15-8.72,18.66-21.57,11-32.33a42.05,42.05,0,0,0-8.11-6" transform="translate(-2.06 -19.57)"/><path d="M172.25,101.3a10.18,10.18,0,0,0-9.23,0c-2.55,1.48-2.53,3.87,0,5.34a10.14,10.14,0,0,0,9.24,0c2.54-1.48,2.53-3.87,0-5.36" transform="translate(-2.06 -19.57)"/><path d="M145.61,85.92a10.17,10.17,0,0,0-9.24,0c-2.55,1.48-2.53,3.87,0,5.35a10.15,10.15,0,0,0,9.23,0c2.54-1.48,2.54-3.87,0-5.35" transform="translate(-2.06 -19.57)"/><path d="M120.92,97.51a4.17,4.17,0,0,0-3.8,0c-8,4.65-7.88,12.25.28,17l6.43,3.71c8.28,4.78,21.08,4.88,29.11.21a1.17,1.17,0,0,0,0-2.21,4.19,4.19,0,0,0-3.81,0c-5.91,3.43-15.35,3.34-21.5-.21l-6.43-3.71c-6.15-3.55-6.26-9.07-.25-12.56a1.16,1.16,0,0,0,0-2.2" transform="translate(-2.06 -19.57)"/><path d="M92.9,99.19c1.18-6.51,6-12.82,14.6-17.79,19.94-11.59,52.49-11.59,72.57,0a35.2,35.2,0,0,1,11.22,9.7c7.68,10.76,4,23.61-11,32.33-19.94,11.59-52.49,11.59-72.56,0-11.46-6.62-16.41-15.6-14.85-24.24m91-20c-22.18-12.8-58.15-12.8-80.18,0C85,90,82.26,106.6,95.28,119.21a44.14,44.14,0,0,0,8.68,6.42c22.18,12.81,58.13,12.81,80.16,0,7.41-4.3,12.31-9.51,14.72-15,4.74-10.88-.26-22.91-15-31.42" transform="translate(-2.06 -19.57)"/></g></g></svg>